<?xml version="1.0" encoding="UTF-8"?>
<svg version="1.1" xmlns="http://www.w3.org/2000/svg" width="500" height="500">
<path d="M0 0 C1.134375 0.020625 2.26875 0.04125 3.4375 0.0625 C3.67984375 0.57039062 3.9221875 1.07828125 4.171875 1.6015625 C6.31245248 5.99797932 8.67747042 10.01445661 11.4375 14.0625 C11.88029297 15.03123047 11.88029297 15.03123047 12.33203125 16.01953125 C16.31741749 23.38475035 25.73233616 28.49411205 33.4375 31.0625 C34.9158226 34.01914519 34.49782783 36.80479737 34.4375 40.0625 C33.4784375 40.2171875 33.4784375 40.2171875 32.5 40.375 C31.819375 40.601875 31.13875 40.82875 30.4375 41.0625 C30.1075 42.0525 29.7775 43.0425 29.4375 44.0625 C26.4675 44.5575 26.4675 44.5575 23.4375 45.0625 C23.1075 46.0525 22.7775 47.0425 22.4375 48.0625 C21.4475 48.0625 20.4575 48.0625 19.4375 48.0625 C18.7775 49.3825 18.1175 50.7025 17.4375 52.0625 C16.7775 52.0625 16.1175 52.0625 15.4375 52.0625 C15.19 52.64 14.9425 53.2175 14.6875 53.8125 C13.4375 56.0625 13.4375 56.0625 11.625 57.6875 C8.7863033 60.76951356 7.27027902 64.14984345 5.48828125 67.91796875 C4.4375 70.0625 4.4375 70.0625 3.4375 71.0625 C0.76691149 71.20365161 -1.88682238 71.10497107 -4.5625 71.0625 C-4.995625 70.1034375 -4.995625 70.1034375 -5.4375 69.125 C-6.39073451 66.91043921 -6.39073451 66.91043921 -8.5625 66.0625 C-9.22916667 64.0625 -9.89583333 62.0625 -10.5625 60.0625 C-11.2225 59.7325 -11.8825 59.4025 -12.5625 59.0625 C-12.5625 58.0725 -12.5625 57.0825 -12.5625 56.0625 C-13.14 55.835625 -13.7175 55.60875 -14.3125 55.375 C-17.12377916 53.73508716 -18.54023345 51.59033319 -20.5625 49.0625 C-22.67910427 47.75084743 -22.67910427 47.75084743 -24.5625 47.0625 C-24.5625 46.4025 -24.5625 45.7425 -24.5625 45.0625 C-25.67625 44.629375 -25.67625 44.629375 -26.8125 44.1875 C-33.33392857 41.51964286 -33.33392857 41.51964286 -34.5625 39.0625 C-35.01432724 33.7535299 -35.01432724 33.7535299 -33.5 31.4375 C-31.5625 30.0625 -31.5625 30.0625 -28.5 28.4375 C-21.41003582 24.52214665 -15.69370573 18.95189308 -11.5625 12.0625 C-10.9025 12.0625 -10.2425 12.0625 -9.5625 12.0625 C-9.294375 11.36125 -9.02625 10.66 -8.75 9.9375 C-4.67928832 0.08209278 -4.67928832 0.08209278 0 0 Z " fill="#6B5CFD" transform="translate(56.5625,219.9375)"/>
<path d="M0 0 C0.66 0.66 1.32 1.32 2 2 C1.9765625 4.3828125 1.9765625 4.3828125 1.625 7.125 C1.45871094 8.49011719 1.45871094 8.49011719 1.2890625 9.8828125 C1.14597656 10.93082031 1.14597656 10.93082031 1 12 C1.67546875 11.89300781 2.3509375 11.78601563 3.046875 11.67578125 C3.93890625 11.55589844 4.8309375 11.43601563 5.75 11.3125 C6.63171875 11.18488281 7.5134375 11.05726563 8.421875 10.92578125 C11.61184415 11.0176137 12.75157728 11.78202996 15 14 C16.99471554 20.38308973 14.98677162 25.79274176 13 32 C13.99 32.495 13.99 32.495 15 33 C15 33.99 15 34.98 15 36 C15.66 36 16.32 36 17 36 C18.07569082 31.23622637 19.13035246 26.46891282 20.125 21.6875 C20.29257813 20.88699219 20.46015625 20.08648437 20.6328125 19.26171875 C21.10683382 16.72383763 21.10683382 16.72383763 21 13 C25.1294488 10.99784301 28.43255885 10.66782246 33 11 C35.4375 12 35.4375 12 37 13 C37.99 12.34 38.98 11.68 40 11 C43.67054238 10.53142012 45.3232965 10.48790005 48.3125 12.75 C49.95208905 14.93611873 50.61794563 16.32561938 51 19 C51.99 17.8553125 51.99 17.8553125 53 16.6875 C57.35286845 12.38354018 62.52724489 10.86147507 68.5625 10.625 C73.03808955 10.8027868 76.11637799 11.74749923 80 14 C82.43596172 16.82885878 82.94874519 18.61192784 83.4375 22.3125 C82.73511129 28.23263341 80.58206083 32.9043264 76.0625 36.875 C69.85282091 41.18375692 64.41417035 41.71855395 57 41 C53.30571029 39.61464136 50.42635291 38.13258243 48 35 C47.70703125 32.30078125 47.70703125 32.30078125 47.8125 29.3125 C47.85310547 27.82169922 47.85310547 27.82169922 47.89453125 26.30078125 C47.92933594 25.54152344 47.96414062 24.78226562 48 24 C46.906875 24.226875 45.81375 24.45375 44.6875 24.6875 C41 25 41 25 39.0625 23.6875 C38 22 38 22 38 20 C37.34 20 36.68 20 36 20 C35.46074051 21.82799827 34.94454733 23.66280609 34.4375 25.5 C34.14746094 26.5209375 33.85742188 27.541875 33.55859375 28.59375 C32.88098578 32.72573707 33.32388537 35.88062611 34 40 C26.33333333 40 18.66666667 40 11 40 C10.01 40.495 10.01 40.495 9 41 C2.00551809 41.56407112 2.00551809 41.56407112 -1.5625 39.5625 C-3.78392276 35.60257248 -3.01230439 32.30932355 -2 28 C-1.1278485 25.2518143 -0.11450987 22.6651323 1 20 C-2.59651531 22.39767688 -2.90908001 23.72724004 -4.25 27.75 C-4.60578125 28.77609375 -4.9615625 29.8021875 -5.328125 30.859375 C-6.30008216 34.46336381 -6.30008216 34.46336381 -5 40 C-11.27 40 -17.54 40 -24 40 C-23.24597364 36.98389455 -22.46141659 34.61762448 -21.25 31.8125 C-19.31748203 27.02755699 -17.70086503 22.18011026 -16.1875 17.25 C-15.95643555 16.52917236 -15.72537109 15.80834473 -15.48730469 15.06567383 C-14.17427467 10.6755468 -13.831866 7.55787253 -15 3 C-10.45092587 -0.63925931 -5.59826237 -0.76294903 0 0 Z M67 17 C63.90787824 23.08356979 62.43300764 28.18012971 62 35 C62.66 35 63.32 35 64 35 C66.66557258 28.94977014 68.51030705 23.61085476 69 17 C68.34 17 67.68 17 67 17 Z " fill="#5A3BF6" transform="translate(162,232)"/>
<path d="M0 0 C0.66 0.66 1.32 1.32 2 2 C1.66302652 8.17784711 1.66302652 8.17784711 -0.5625 10.9375 C-1.036875 11.288125 -1.51125 11.63875 -2 12 C-1.01 13.485 -1.01 13.485 0 15 C-0.53870042 18.08528421 -1.19944554 20.98151597 -2 24 C-2.5428668 26.18720247 -3.08451692 28.37470726 -3.625 30.5625 C-4.08215964 32.37529639 -4.54007684 34.18790277 -5 36 C-3.68 36 -2.36 36 -1 36 C-0.87882812 35.3709375 -0.75765625 34.741875 -0.6328125 34.09375 C0.19877542 29.84625477 1.07074652 25.66567464 2.25 21.5 C2.4975 20.345 2.745 19.19 3 18 C2.34 17.34 1.68 16.68 1 16 C1 14.68 1 13.36 1 12 C2.32 12 3.64 12 5 12 C5.0928125 10.39125 5.0928125 10.39125 5.1875 8.75 C6 5 6 5 8.375 2.625 C12.47227885 0.08858928 15.63107609 -0.18486603 20.375 -0.25 C21.49648438 -0.27578125 22.61796875 -0.3015625 23.7734375 -0.328125 C27.32751966 0.03330708 29.1726607 0.85494368 32 3 C32.8125 5.1875 32.8125 5.1875 33 7 C33.556875 6.67 34.11375 6.34 34.6875 6 C37.30284522 4.8690399 39.1806646 4.84337026 42 5 C43.0625 6.8125 43.0625 6.8125 44 9 C43.67 9.99 43.34 10.98 43 12 C44.65 12.33 46.3 12.66 48 13 C47.67 14.32 47.34 15.64 47 17 C45.02 17.33 43.04 17.66 41 18 C40.79503906 18.83144531 40.59007812 19.66289062 40.37890625 20.51953125 C40.10949219 21.60621094 39.84007812 22.69289062 39.5625 23.8125 C39.29566406 24.89144531 39.02882813 25.97039062 38.75390625 27.08203125 C38.23922588 29.0740843 37.65062825 31.04811524 37 33 C38.98 33 40.96 33 43 33 C42.62118922 35.74637817 42.22167713 36.80049058 40.125 38.6875 C35.60448652 41.47958186 31.15362761 41.483734 26 41 C23.4375 40 23.4375 40 22 38 C21.25305572 32.02444572 22.62270153 27.0412051 24.34375 21.3203125 C25.09071756 19.08113703 25.09071756 19.08113703 25 17 C22.03350263 17.54288415 22.03350263 17.54288415 19 19 C17.4031163 21.76969255 17.4031163 21.76969255 16.625 25.125 C16.14933594 26.76855469 16.14933594 26.76855469 15.6640625 28.4453125 C14.75515161 32.70796178 14.75515161 32.70796178 15 40 C2.46 40 -10.08 40 -23 40 C-22 36 -22 36 -20.625 32.9375 C-17.83711501 26.54744679 -15.1512737 19.92023223 -17 13 C-14.03 12.01 -11.06 11.02 -8 10 C-8.33 9.67 -8.66 9.34 -9 9 C-9.3125 5.625 -9.3125 5.625 -9 2 C-6.17266771 -1.35091234 -4.03066587 -1.37891201 0 0 Z M19 5 C18.01 6.485 18.01 6.485 17 8 C17.33 9.32 17.66 10.64 18 12 C21.63 12 25.26 12 29 12 C29 11.67 29 11.34 29 11 C26.36 10.67 23.72 10.34 21 10 C20.67 8.35 20.34 6.7 20 5 C19.67 5 19.34 5 19 5 Z " fill="#5A3BF6" transform="translate(432,232)"/>
<path d="M0 0 C2.4375 1.5 2.4375 1.5 4 3 C4.70125 2.505 5.4025 2.01 6.125 1.5 C9.51524386 -0.26882288 11.22446543 -0.53936208 15 0 C18.375 2 18.375 2 21 4 C21.40476562 3.52433594 21.80953125 3.04867187 22.2265625 2.55859375 C25.3253823 -0.16481837 28.99400433 -0.21748838 33 0 C36.0625 1.5 36.0625 1.5 38 4 C38.95601527 9.97509543 36.89660804 15.3892012 35 21 C35.66 21 36.32 21 37 21 C37.36585366 25.51219512 37.36585366 25.51219512 35.6875 27.75 C32.03349178 30.45667275 28.38262158 30.37781221 24 30 C21.0625 28 21.0625 28 19 26 C18.566875 26.474375 18.13375 26.94875 17.6875 27.4375 C15.16944498 29.76903243 12.99609752 30.00043361 9.625 30.375 C6 30 6 30 2.9375 28.0625 C0.78093865 24.65374174 0.79269073 24.26721493 1.625 20.5625 C2.07346791 19.03872836 2.53137847 17.51769474 3 16 C3.35036606 14.00291344 3.69169075 12.00401011 4 10 C-0.21088853 16.31633279 -1 21.39317097 -1 29 C-7.27 29 -13.54 29 -20 29 C-20 28.01 -20 27.02 -20 26 C-19.55011719 25.57074219 -19.10023438 25.14148438 -18.63671875 24.69921875 C-14.24504996 20.13984901 -12.7389061 11.37789865 -12.75 5.1875 C-12.87375 3.6096875 -12.87375 3.6096875 -13 2 C-8.50383693 0.24539978 -4.82634558 -0.44688385 0 0 Z M22 9 C19.12744934 11.42195448 18.29161081 13.59742703 17.3125 17.1875 C17.06113281 18.08855469 16.80976563 18.98960937 16.55078125 19.91796875 C16.27814453 20.94857422 16.27814453 20.94857422 16 22 C17.95656701 21.7917203 17.95656701 21.7917203 20 21 C21.17047656 19.29749034 21.17047656 19.29749034 21.8125 17.1875 C22.06644531 16.50042969 22.32039063 15.81335938 22.58203125 15.10546875 C23.05333812 12.73131543 22.75212833 11.27685106 22 9 Z " fill="#5B3DF5" transform="translate(262,243)"/>
<path d="M0 0 C1.79296875 1.2265625 1.79296875 1.2265625 3 3 C3.07421875 5.26171875 3.07421875 5.26171875 2.6875 7.6875 C2.56761719 8.49574219 2.44773437 9.30398437 2.32421875 10.13671875 C2.21722656 10.75160156 2.11023438 11.36648437 2 12 C2.59167969 11.88140625 3.18335938 11.7628125 3.79296875 11.640625 C7.86720043 10.97598688 10.25075857 10.64831525 14.0625 12.4375 C16.72072991 15.95322342 16.57689623 18.81567673 16 23 C15.44075897 26.03118036 14.77347646 29.01659081 14 32 C14.33 32 14.66 32 15 32 C15.36585366 36.51219512 15.36585366 36.51219512 13.6875 38.75 C10.03757827 41.45364573 6.37792868 41.45288917 2 41 C-1.0625 39.0625 -1.0625 39.0625 -3 36 C-2.84309752 32.83870563 -1.92946681 30.010205 -1 27 C-0.64963394 25.00291344 -0.30830925 23.00401011 0 21 C-0.66 21 -1.32 21 -2 21 C-2.5106899 22.85125089 -3.00802066 24.70618905 -3.5 26.5625 C-3.7784375 27.59503906 -4.056875 28.62757813 -4.34375 29.69140625 C-5.22698309 33.58219834 -5.22698309 33.58219834 -5 40 C-11.27 40 -17.54 40 -24 40 C-24 39.01 -24 38.02 -24 37 C-23.54786133 36.56212158 -23.09572266 36.12424316 -22.62988281 35.6730957 C-19.04518288 31.99335504 -18.21184589 25.99853923 -16.75 21.1875 C-16.37359375 20.01123047 -15.9971875 18.83496094 -15.609375 17.62304688 C-15.0834375 15.9127832 -15.0834375 15.9127832 -14.546875 14.16796875 C-14.22557617 13.12922607 -13.90427734 12.0904834 -13.57324219 11.02026367 C-12.94251286 7.69711524 -13.25209815 5.27711987 -14 2 C-9.59002713 -0.27611503 -4.87744001 -0.8494418 0 0 Z " fill="#5130F9" transform="translate(394,232)"/>
<path d="M0 0 C1.17369141 0.14695313 1.17369141 0.14695313 2.37109375 0.296875 C4.11108878 0.55740902 5.84008955 0.89116449 7.5625 1.25 C8.2225 1.37375 8.8825 1.4975 9.5625 1.625 C9.8925 1.295 10.2225 0.965 10.5625 0.625 C12.56208364 0.58419217 14.56295254 0.58245644 16.5625 0.625 C16.44740339 2.04250563 16.31996342 3.45901169 16.1875 4.875 C16.11789062 5.66390625 16.04828125 6.4528125 15.9765625 7.265625 C15.53708992 9.76978952 14.94822115 11.49457156 13.5625 13.625 C12.5725 13.955 11.5825 14.285 10.5625 14.625 C8.40625 13.19140625 8.40625 13.19140625 6.0625 11.1875 C2.79202759 8.18996777 2.79202759 8.18996777 -1.4375 7.625 C0.0103089 11.26812782 1.74760547 12.66950414 5.0625 14.6875 C8.15333876 16.57913346 9.50614598 17.54046897 11.5625 20.625 C12.23727146 24.35400019 12.34841283 28.02619022 10.65234375 31.4765625 C7.8308463 35.15993216 5.03833577 36.72983285 0.5625 37.625 C-5.24911707 38.16311269 -9.16880008 36.84339997 -14.4375 34.625 C-15.0975 35.285 -15.7575 35.945 -16.4375 36.625 C-19.5625 36.75 -19.5625 36.75 -22.4375 36.625 C-23.80845624 32.93462722 -23.03760967 30.91616165 -21.5 27.375 C-21.11972656 26.48296875 -20.73945313 25.5909375 -20.34765625 24.671875 C-20.04730469 23.99640625 -19.74695313 23.3209375 -19.4375 22.625 C-17.08984375 22.44140625 -17.08984375 22.44140625 -14.4375 22.625 C-13.633125 23.594375 -12.82875 24.56375 -12 25.5625 C-9.71451987 28.89296641 -9.71451987 28.89296641 -6.125 29.5 C-5.238125 29.54125 -4.35125 29.5825 -3.4375 29.625 C-3.1075 28.635 -2.7775 27.645 -2.4375 26.625 C-3.0975 26.439375 -3.7575 26.25375 -4.4375 26.0625 C-8.78991187 23.97696931 -12.26821409 21.27336401 -15.4375 17.625 C-16.58755448 13.91926889 -16.67960992 11.75484627 -15.875 8 C-13.65853309 4.3380112 -10.62392428 1.38201044 -6.51953125 -0.0390625 C-4.20863112 -0.41192819 -2.31920912 -0.29743756 0 0 Z " fill="#5737F8" transform="translate(358.4375,235.375)"/>
<path d="M0 0 C1.134375 0.020625 2.26875 0.04125 3.4375 0.0625 C3.67984375 0.57039062 3.9221875 1.07828125 4.171875 1.6015625 C6.31245248 5.99797932 8.67747042 10.01445661 11.4375 14.0625 C11.88029297 15.03123047 11.88029297 15.03123047 12.33203125 16.01953125 C16.31741749 23.38475035 25.73233616 28.49411205 33.4375 31.0625 C34.9158226 34.01914519 34.49782783 36.80479737 34.4375 40.0625 C33.4784375 40.2171875 33.4784375 40.2171875 32.5 40.375 C31.819375 40.601875 31.13875 40.82875 30.4375 41.0625 C30.1075 42.0525 29.7775 43.0425 29.4375 44.0625 C26.4675 44.5575 26.4675 44.5575 23.4375 45.0625 C23.1075 46.0525 22.7775 47.0425 22.4375 48.0625 C21.4475 48.0625 20.4575 48.0625 19.4375 48.0625 C18.7775 49.3825 18.1175 50.7025 17.4375 52.0625 C16.7775 52.0625 16.1175 52.0625 15.4375 52.0625 C15.19 52.64 14.9425 53.2175 14.6875 53.8125 C13.4375 56.0625 13.4375 56.0625 11.625 57.6875 C8.7863033 60.76951356 7.27027902 64.14984345 5.48828125 67.91796875 C4.4375 70.0625 4.4375 70.0625 3.4375 71.0625 C0.76691149 71.20365161 -1.88682238 71.10497107 -4.5625 71.0625 C-4.995625 70.1034375 -4.995625 70.1034375 -5.4375 69.125 C-6.39073451 66.91043921 -6.39073451 66.91043921 -8.5625 66.0625 C-9.22916667 64.0625 -9.89583333 62.0625 -10.5625 60.0625 C-11.2225 59.7325 -11.8825 59.4025 -12.5625 59.0625 C-12.5625 58.0725 -12.5625 57.0825 -12.5625 56.0625 C-13.14 55.835625 -13.7175 55.60875 -14.3125 55.375 C-17.12377916 53.73508716 -18.54023345 51.59033319 -20.5625 49.0625 C-22.67910427 47.75084743 -22.67910427 47.75084743 -24.5625 47.0625 C-24.5625 46.4025 -24.5625 45.7425 -24.5625 45.0625 C-25.67625 44.629375 -25.67625 44.629375 -26.8125 44.1875 C-33.33392857 41.51964286 -33.33392857 41.51964286 -34.5625 39.0625 C-35.01432724 33.7535299 -35.01432724 33.7535299 -33.5 31.4375 C-31.5625 30.0625 -31.5625 30.0625 -28.5 28.4375 C-21.41003582 24.52214665 -15.69370573 18.95189308 -11.5625 12.0625 C-10.9025 12.0625 -10.2425 12.0625 -9.5625 12.0625 C-9.294375 11.36125 -9.02625 10.66 -8.75 9.9375 C-4.67928832 0.08209278 -4.67928832 0.08209278 0 0 Z M-2.5625 7.0625 C-2.5625 9.0425 -2.5625 11.0225 -2.5625 13.0625 C-3.18125 13.124375 -3.8 13.18625 -4.4375 13.25 C-5.13875 13.518125 -5.84 13.78625 -6.5625 14.0625 C-6.83964844 14.78953125 -7.11679687 15.5165625 -7.40234375 16.265625 C-10.61677399 24.01489116 -18.01436563 30.61661257 -25.5625 34.0625 C-25.5625 34.7225 -25.5625 35.3825 -25.5625 36.0625 C-26.5525 36.3925 -27.5425 36.7225 -28.5625 37.0625 C-25.82690452 39.99400086 -25.82690452 39.99400086 -22.4375 42.0625 C-20.05551044 43.33289443 -19.71301739 44.68476406 -18.5625 47.0625 C-17.5725 47.3925 -16.5825 47.7225 -15.5625 48.0625 C-14.22422696 49.72520287 -12.89060215 51.39166181 -11.5625 53.0625 C-10.9025 53.0625 -10.2425 53.0625 -9.5625 53.0625 C-9.43875 53.619375 -9.315 54.17625 -9.1875 54.75 C-8.50273145 57.28364364 -7.57116237 59.64171032 -6.5625 62.0625 C-5.5725 62.0625 -4.5825 62.0625 -3.5625 62.0625 C-3.2325 64.0425 -2.9025 66.0225 -2.5625 68.0625 C-0.62175139 67.78632467 -0.62175139 67.78632467 1.4375 67.0625 C3.7148501 64.24740007 3.7148501 64.24740007 3.4375 61.0625 C4.4275 60.7325 5.4175 60.4025 6.4375 60.0625 C8.7675037 56.84532646 8.7675037 56.84532646 9.4375 53.0625 C10.05625 52.815 10.675 52.5675 11.3125 52.3125 C13.57406871 51.26538775 13.57406871 51.26538775 14.25 49.15625 C15.85609368 46.32445324 17.6369219 45.66276681 20.5625 44.3125 C21.47257812 43.88453125 22.38265625 43.4565625 23.3203125 43.015625 C24.36832031 42.54382813 24.36832031 42.54382813 25.4375 42.0625 C25.4375 41.0725 25.4375 40.0825 25.4375 39.0625 C27.4175 39.0625 29.3975 39.0625 31.4375 39.0625 C31.4375 38.0725 31.4375 37.0825 31.4375 36.0625 C29.83449529 34.76609729 29.83449529 34.76609729 27.75 33.6875 C23.19102559 31.01000709 19.9358628 27.6970776 16.375 23.8125 C14.29731871 21.93588464 13.08007715 21.70036345 10.4375 21.0625 C9.9425 19.5775 9.9425 19.5775 9.4375 18.0625 C8.4475 17.7325 7.4575 17.4025 6.4375 17.0625 C3.66354031 14.06662353 2.58376804 10.94217644 1.4375 7.0625 C0.1175 7.0625 -1.2025 7.0625 -2.5625 7.0625 Z " fill="#CCC7FE" transform="translate(56.5625,219.9375)"/>
<path d="M0 0 C4.23356908 1.47682642 8.3144121 0.56586603 12.6875 -0.0625 C13.97406001 3.52148861 13.41949954 5.61855463 12.0625 9.125 C11.57910156 10.44564453 11.57910156 10.44564453 11.0859375 11.79296875 C9.6875 13.9375 9.6875 13.9375 7.0390625 14.73828125 C6.26304687 14.80402344 5.48703125 14.86976563 4.6875 14.9375 C3.0375 12.6275 1.3875 10.3175 -0.3125 7.9375 C-2.7037295 7.7261547 -2.7037295 7.7261547 -5.3125 8.9375 C-8.75332295 14.12137142 -9.99011427 19.81217106 -10.3125 25.9375 C-9.9825 26.5975 -9.6525 27.2575 -9.3125 27.9375 C-7.02413778 28.35736946 -7.02413778 28.35736946 -4.3125 27.9375 C-3.4875 27.091875 -2.6625 26.24625 -1.8125 25.375 C-0.9875 24.570625 -0.1625 23.76625 0.6875 22.9375 C3.5 23.125 3.5 23.125 5.6875 23.9375 C6.5 25.5625 6.5 25.5625 6.6875 27.9375 C3.43818654 32.91301123 0.49116194 35.16689127 -5.3125 36.9375 C-10.98454353 37.74299731 -15.22327259 36.67785322 -20.3125 33.9375 C-23.69874585 31.08592455 -25.10245818 29.03791823 -25.55078125 24.5546875 C-25.7742641 16.29758447 -24.20231528 10.53024332 -19 4.0625 C-13.46158315 -0.31671332 -6.83494109 -3.14037834 0 0 Z " fill="#5332F9" transform="translate(131.3125,236.0625)"/>
<path d="M0 0 C2.3125 0.0625 2.3125 0.0625 5 1 C9 5.97297297 9 5.97297297 9 10 C9.969375 10.268125 10.93875 10.53625 11.9375 10.8125 C12.948125 11.204375 13.95875 11.59625 15 12 C15.495 13.485 15.495 13.485 16 15 C16.99 15 17.98 15 19 15 C19 18.63 19 22.26 19 26 C17.02 26 15.04 26 13 26 C12.34 27.32 11.68 28.64 11 30 C10.34 30 9.68 30 9 30 C8.9175 30.556875 8.835 31.11375 8.75 31.6875 C7.77389987 34.69714206 6.04811186 36.62154752 4 39 C0.85669777 38.6507442 -0.79491452 38.16074267 -3.3125 36.1875 C-5 34 -5 34 -5 30 C-6.32 29.67 -7.64 29.34 -9 29 C-9 28.01 -9 27.02 -9 26 C-9.763125 26.0825 -10.52625 26.165 -11.3125 26.25 C-14 26 -14 26 -15.8125 24.3125 C-17.23614104 21.5401464 -17.4181551 20.08213196 -17 17 C-15.1015625 15.19921875 -15.1015625 15.19921875 -12.625 13.6875 C-11.81289062 13.17574219 -11.00078125 12.66398437 -10.1640625 12.13671875 C-8 11 -8 11 -6 11 C-5.34 9.02 -4.68 7.04 -4 5 C-3.34 5 -2.68 5 -2 5 C-1.855625 4.360625 -1.71125 3.72125 -1.5625 3.0625 C-1 1 -1 1 0 0 Z " fill="#917DFA" transform="translate(94,265)"/>
<path d="M0 0 C3 0.625 3 0.625 5.3125 2.9375 C7 5.625 7 5.625 8 8.625 C9.98246398 9.65932904 11.98413316 10.65738392 14 11.625 C15.68359375 12.89453125 15.68359375 12.89453125 17 14.625 C17.29296875 17.10546875 17.29296875 17.10546875 17.1875 19.8125 C17.14689453 21.16408203 17.14689453 21.16408203 17.10546875 22.54296875 C17.07066406 23.23003906 17.03585938 23.91710937 17 24.625 C10.375 27.5 10.375 27.5 7 28.625 C6.6278958 29.94803717 6.29369827 31.28237935 6 32.625 C5.01 33.12 5.01 33.12 4 33.625 C2.9590934 35.26642963 1.95495674 36.93212215 1 38.625 C-2.37082558 37.18036047 -4.58037292 35.37836875 -7 32.625 C-7.33 31.635 -7.66 30.645 -8 29.625 C-10.91887443 26.05748681 -13.58700462 24.82854419 -18 23.625 C-18.33 20.985 -18.66 18.345 -19 15.625 C-18.05125 15.17125 -17.1025 14.7175 -16.125 14.25 C-12.99686321 12.82261746 -12.99686321 12.82261746 -11 10.625 C-10.01 10.625 -9.02 10.625 -8 10.625 C-7.9175 9.903125 -7.835 9.18125 -7.75 8.4375 C-6.51658742 3.81220282 -4.82636255 1.0054922 0 0 Z " fill="#8171FB" transform="translate(96,209.375)"/>
<path d="M0 0 C2.49153377 3.73730065 2.41025455 6.67654816 2 11 C1.47406064 13.4120667 0.78264271 15.65207188 0 18 C0.66 18 1.32 18 2 18 C2.25 20.3125 2.25 20.3125 2 23 C-0.25872583 25.52977293 -2.08174475 26.02119308 -5.375 26.875 C-9 27 -9 27 -12.125 25.375 C-13.07375 24.92125 -14.0225 24.4675 -15 24 C-16.68208635 24.97383946 -18.34738161 25.97695052 -20 27 C-23.56753336 27.16854488 -26.84540634 26.70765418 -29.9375 24.8125 C-31.51118811 22.12797323 -31.87787494 20.11418913 -32 17 C-30.61312897 12.8393869 -29.62220662 11.3660039 -25.8125 9.125 C-24.884375 8.75375 -23.95625 8.3825 -23 8 C-23.66 6.35 -24.32 4.7 -25 3 C-19.00483483 -5.35040863 -8.54273282 -4.80528721 0 0 Z M-12 2 C-12.33 3.65 -12.66 5.3 -13 7 C-14.65 7.33 -16.3 7.66 -18 8 C-15.28450846 10.30671915 -15.28450846 10.30671915 -12.8125 9.625 C-12.214375 9.41875 -11.61625 9.2125 -11 9 C-10.67 7.02 -10.34 5.04 -10 3 C-10.66 2.67 -11.32 2.34 -12 2 Z M-15 14 C-15.99 14.99 -16.98 15.98 -18 17 C-17.34 17.66 -16.68 18.32 -16 19 C-15.34 18.34 -14.68 17.68 -14 17 C-14.33 16.01 -14.66 15.02 -15 14 Z " fill="#684CF5" transform="translate(332,246)"/>
<path d="M0 0 C2.875 1.5625 2.875 1.5625 5 4 C5.95601527 9.97509543 3.89660804 15.3892012 2 21 C2.66 21 3.32 21 4 21 C4.36585366 25.51219512 4.36585366 25.51219512 2.6875 27.75 C-0.96650822 30.45667275 -4.61737842 30.37781221 -9 30 C-11.9375 28 -11.9375 28 -14 26 C-14.433125 26.474375 -14.86625 26.94875 -15.3125 27.4375 C-17.83055502 29.76903243 -20.00390248 30.00043361 -23.375 30.375 C-27 30 -27 30 -30 27.9375 C-32 25 -32 25 -31.8125 21.1875 C-31.4103125 19.6096875 -31.4103125 19.6096875 -31 18 C-30.67 18 -30.34 18 -30 18 C-29.67 20.31 -29.34 22.62 -29 25 C-28.01 25.33 -27.02 25.66 -26 26 C-26 26.66 -26 27.32 -26 28 C-22.97580475 27.41196203 -19.98241547 26.77321882 -17 26 C-17.66 25.67 -18.32 25.34 -19 25 C-18.58846263 20.02906176 -18.20399168 15.55491614 -16 11 C-15.34 11 -14.68 11 -14 11 C-14.165 12.093125 -14.33 13.18625 -14.5 14.3125 C-15.06718184 17.87525873 -15.06718184 17.87525873 -15 21 C-14.34 21 -13.68 21 -13 21 C-12.855625 20.113125 -12.71125 19.22625 -12.5625 18.3125 C-12.08980022 15.52882354 -11.56929815 12.76516243 -11 10 C-11.66 10 -12.32 10 -13 10 C-13.33 8.02 -13.66 6.04 -14 4 C-12.66666667 3.33333333 -11.33333333 2.66666667 -10 2 C-9.38125 1.62875 -8.7625 1.2575 -8.125 0.875 C-5.19194195 -0.33272979 -3.14793377 -0.38546128 0 0 Z " fill="#5535F8" transform="translate(295,243)"/>
<path d="M0 0 C0.20753906 0.556875 0.41507813 1.11375 0.62890625 1.6875 C2.84310727 7.17204814 5.51071497 11.10883175 9.609375 15.37109375 C11 17 11 17 11 19 C9.68 18.67 8.36 18.34 7 18 C7 17.01 7 16.02 7 15 C6.401875 14.9175 5.80375 14.835 5.1875 14.75 C2.30531281 13.76182154 1.52329844 12.61136876 0 10 C-0.6875 7.25 -0.6875 7.25 -1 5 C-2.32 4.67 -3.64 4.34 -5 4 C-5 5.98 -5 7.96 -5 10 C-5.99 10.33 -6.98 10.66 -8 11 C-8.28359375 11.71929687 -8.5671875 12.43859375 -8.859375 13.1796875 C-10.32247371 16.79734938 -12.63051353 19.30887648 -15.25 22.125 C-15.71535156 22.64964844 -16.18070313 23.17429688 -16.66015625 23.71484375 C-19.79228828 27.1230866 -22.72268715 29.07945018 -27 31 C-28.81554159 32.56102491 -28.81554159 32.56102491 -30 34 C-29.01 34.66 -28.02 35.32 -27 36 C-27 36.66 -27 37.32 -27 38 C-26.38125 38.0825 -25.7625 38.165 -25.125 38.25 C-22.32494581 39.23825442 -22.25886068 40.40359985 -21 43 C-18.9664052 44.26804566 -18.9664052 44.26804566 -17 45 C-17 45.66 -17 46.32 -17 47 C-15.515 47.495 -15.515 47.495 -14 48 C-14 48.66 -14 49.32 -14 50 C-13.34 50 -12.68 50 -12 50 C-11.34 51.98 -10.68 53.96 -10 56 C-11.485 55.505 -11.485 55.505 -13 55 C-13 54.01 -13 53.02 -13 52 C-13.639375 51.731875 -14.27875 51.46375 -14.9375 51.1875 C-17 50 -17 50 -18 47 C-18.66 47 -19.32 47 -20 47 C-20 46.34 -20 45.68 -20 45 C-20.57878906 44.73316406 -21.15757813 44.46632813 -21.75390625 44.19140625 C-24.05620779 42.97018543 -25.91123693 41.57054766 -27.9375 39.9375 C-30.92242837 37.64440549 -33.13707293 36.24143294 -37 36 C-37.36298932 30.55516014 -37.36298932 30.55516014 -35.9375 28.375 C-34 27 -34 27 -30.9375 25.375 C-23.84753582 21.45964665 -18.13120573 15.88939308 -14 9 C-13.34 9 -12.68 9 -12 9 C-11.7525 8.2575 -11.505 7.515 -11.25 6.75 C-8.66897538 1.07174583 -6.24538629 -0.56776239 0 0 Z " fill="#867FF5" transform="translate(59,223)"/>
<path d="M0 0 C2.39763185 2.39763185 2.34280586 3.33273498 2.625 6.625 C2.69976562 7.44226563 2.77453125 8.25953125 2.8515625 9.1015625 C2.92503906 10.04128906 2.92503906 10.04128906 3 11 C2.01 10.67 1.02 10.34 0 10 C-1.15156265 15.26428638 -2 20.60373437 -2 26 C-2 26.33 -2 26.66 -2 27 C-4.64 27 -7.28 27 -10 27 C-10 26.34 -10 25.68 -10 25 C-11.32 24.67 -12.64 24.34 -14 24 C-14.30267236 18.85456984 -13.80934354 16.27020218 -11 12 C-10.29329272 9.30745009 -10.29329272 9.30745009 -10 7 C-10.66 6.67 -11.32 6.34 -12 6 C-12 5.01 -12 4.02 -12 3 C-4.31506849 -0.61643836 -4.31506849 -0.61643836 0 0 Z " fill="#502FFA" transform="translate(279,244)"/>
<path d="M0 0 C3.63 0 7.26 0 11 0 C10.01 0.495 10.01 0.495 9 1 C9 1.66 9 2.32 9 3 C7.35 3 5.7 3 4 3 C3.80664062 3.67546875 3.61328125 4.3509375 3.4140625 5.046875 C3.15367187 5.93890625 2.89328125 6.8309375 2.625 7.75 C2.24214844 9.07257813 2.24214844 9.07257813 1.8515625 10.421875 C1.0775614 12.76518107 0.09986883 14.80026233 -1 17 C-1.38290462 18.99110401 -1.72604615 20.99100513 -2 23 C-1.34 23.33 -0.68 23.66 0 24 C-8.42857143 25.28571429 -8.42857143 25.28571429 -13 24 C-13.19551338 22.39679026 -13.38111983 20.79237014 -13.5625 19.1875 C-13.66691406 18.29417969 -13.77132812 17.40085937 -13.87890625 16.48046875 C-14 14 -14 14 -13 11 C-12.175 10.360625 -11.35 9.72125 -10.5 9.0625 C-7.94441182 6.95413975 -7.34294784 6.2008465 -7 3 C-3.535 2.505 -3.535 2.505 0 2 C0 1.34 0 0.68 0 0 Z " fill="#502EFB" transform="translate(225,245)"/>
<path d="M0 0 C4.23356908 1.47682642 8.3144121 0.56586603 12.6875 -0.0625 C13.97406001 3.52148861 13.41949954 5.61855463 12.0625 9.125 C11.57910156 10.44564453 11.57910156 10.44564453 11.0859375 11.79296875 C9.6875 13.9375 9.6875 13.9375 7.0390625 14.73828125 C6.26304687 14.80402344 5.48703125 14.86976563 4.6875 14.9375 C3.0375 12.6275 1.3875 10.3175 -0.3125 7.9375 C-2.7037295 7.7261547 -2.7037295 7.7261547 -5.3125 8.9375 C-7.9654206 13.16995556 -9.67318868 17.98283724 -10.3125 22.9375 C-10.9725 22.9375 -11.6325 22.9375 -12.3125 22.9375 C-12.3125 20.6275 -12.3125 18.3175 -12.3125 15.9375 C-11.6525 15.9375 -10.9925 15.9375 -10.3125 15.9375 C-10.3125 14.2875 -10.3125 12.6375 -10.3125 10.9375 C-9.6525 10.9375 -8.9925 10.9375 -8.3125 10.9375 C-8.4775 10.174375 -8.6425 9.41125 -8.8125 8.625 C-9.3125 5.9375 -9.3125 5.9375 -9.3125 2.9375 C-10.09625 3.14375 -10.88 3.35 -11.6875 3.5625 C-12.55375 3.68625 -13.42 3.81 -14.3125 3.9375 C-14.9725 3.2775 -15.6325 2.6175 -16.3125 1.9375 C-10.89143363 -0.71771618 -5.89767471 -2.70974243 0 0 Z " fill="#6549F2" transform="translate(131.3125,236.0625)"/>
<path d="M0 0 C0.33 1.32 0.66 2.64 1 4 C2.32 4.33 3.64 4.66 5 5 C5 5.99 5 6.98 5 8 C5.66 8 6.32 8 7 8 C7 8.66 7 9.32 7 10 C7.66 10 8.32 10 9 10 C9 10.66 9 11.32 9 12 C10.32 12 11.64 12 13 12 C12.67 13.32 12.34 14.64 12 16 C9.69 16.66 7.38 17.32 5 18 C5.061875 19.0725 5.12375 20.145 5.1875 21.25 C4.99562206 25.0875589 4.77526522 26.43030998 2 29 C1.01 29 0.02 29 -1 29 C-1.4125 27.783125 -1.825 26.56625 -2.25 25.3125 C-3.33083059 22.36100109 -4.18181293 20.78283456 -6.25 18.3125 C-8 16 -8 16 -8.125 13.5625 C-6.74944666 10.42929517 -4.85196518 8.78674296 -2.3671875 6.4921875 C-0.52463119 4.4811689 -0.15796508 2.68540639 0 0 Z " fill="#6755FB" transform="translate(95,215)"/>
<path d="M0 0 C2.3125 0.0625 2.3125 0.0625 5 1 C9 5.97297297 9 5.97297297 9 10 C9.969375 10.268125 10.93875 10.53625 11.9375 10.8125 C12.948125 11.204375 13.95875 11.59625 15 12 C15.495 13.485 15.495 13.485 16 15 C16.99 15 17.98 15 19 15 C19 18.63 19 22.26 19 26 C17.02 26 15.04 26 13 26 C12.34 27.32 11.68 28.64 11 30 C10.34 30 9.68 30 9 30 C8.9175 30.556875 8.835 31.11375 8.75 31.6875 C7.77389987 34.69714206 6.04811186 36.62154752 4 39 C0.85669777 38.6507442 -0.79491452 38.16074267 -3.3125 36.1875 C-5 34 -5 34 -5 30 C-6.32 29.67 -7.64 29.34 -9 29 C-9 28.01 -9 27.02 -9 26 C-9.763125 26.0825 -10.52625 26.165 -11.3125 26.25 C-14 26 -14 26 -15.8125 24.3125 C-17.23614104 21.5401464 -17.4181551 20.08213196 -17 17 C-15.1015625 15.19921875 -15.1015625 15.19921875 -12.625 13.6875 C-11.81289062 13.17574219 -11.00078125 12.66398437 -10.1640625 12.13671875 C-8 11 -8 11 -6 11 C-5.34 9.02 -4.68 7.04 -4 5 C-3.34 5 -2.68 5 -2 5 C-1.855625 4.360625 -1.71125 3.72125 -1.5625 3.0625 C-1 1 -1 1 0 0 Z M0 2 C-0.45375 2.9075 -0.9075 3.815 -1.375 4.75 C-1.91125 5.8225 -2.4475 6.895 -3 8 C-3.433125 9.11375 -3.433125 9.11375 -3.875 10.25 C-5.45150024 12.70233371 -7.28523815 13.14270678 -10 14 C-10 14.66 -10 15.32 -10 16 C-11.65 16.33 -13.3 16.66 -15 17 C-15.04510361 19.37897003 -15.04510361 19.37897003 -14 22 C-12.29935416 23.22207214 -10.58399468 24.11485846 -8.69140625 25.0078125 C-7 26 -7 26 -5 29 C-4.34 29 -3.68 29 -3 29 C-2.67 29.99 -2.34 30.98 -2 32 C-1.34 32 -0.68 32 0 32 C0 32.99 0 33.98 0 35 C0.99 35 1.98 35 3 35 C4.16519744 33.30214087 5.32672598 31.60152566 6.4609375 29.8828125 C8.68683958 27.15975462 11.36277088 25.70186346 14.42578125 24.04296875 C14.94527344 23.69878906 15.46476562 23.35460937 16 23 C16 22.34 16 21.68 16 21 C16.66 21 17.32 21 18 21 C18 19.35 18 17.7 18 16 C16.63875 15.566875 16.63875 15.566875 15.25 15.125 C8.36 12.74 8.36 12.74 6.875 9.6875 C6.58625 8.800625 6.2975 7.91375 6 7 C5.62875 6.071875 5.2575 5.14375 4.875 4.1875 C4.58625 3.465625 4.2975 2.74375 4 2 C2.68 2 1.36 2 0 2 Z " fill="#E2DDFE" transform="translate(94,265)"/>
<path d="M0 0 C0.804375 0.12375 1.60875 0.2475 2.4375 0.375 C3.0975 1.365 3.7575 2.355 4.4375 3.375 C5.4275 3.705 6.4175 4.035 7.4375 4.375 C7.4375 5.365 7.4375 6.355 7.4375 7.375 C8.4275 7.375 9.4175 7.375 10.4375 7.375 C10.1075 9.025 9.7775 10.675 9.4375 12.375 C8.4475 12.375 7.4575 12.375 6.4375 12.375 C6.19 12.9525 5.9425 13.53 5.6875 14.125 C4.26550599 16.68458921 2.53311473 18.34487323 0.4375 20.375 C-0.2225 21.365 -0.8825 22.355 -1.5625 23.375 C-1.8925 21.725 -2.2225 20.075 -2.5625 18.375 C-3.2225 18.375 -3.8825 18.375 -4.5625 18.375 C-5.01625 17.59125 -5.47 16.8075 -5.9375 16 C-7.63901113 13.2514051 -8.60769084 12.49578968 -11.5625 11.375 C-10.31846862 7.64290586 -8.39006102 6.06791525 -5.5625 3.375 C-5.0675 2.776875 -4.5725 2.17875 -4.0625 1.5625 C-2.5625 0.375 -2.5625 0.375 0 0 Z " fill="#5231FC" transform="translate(96.5625,275.625)"/>
<path d="M0 0 C1.65 0.33 3.3 0.66 5 1 C4.01 1.33 3.02 1.66 2 2 C1.40929986 3.94603274 1.40929986 3.94603274 1 6 C0.34 6.66 -0.32 7.32 -1 8 C1.31 8.33 3.62 8.66 6 9 C6 9.66 6 10.32 6 11 C7.98 11 9.96 11 12 11 C11.67 12.32 11.34 13.64 11 15 C10.45859375 14.83628906 9.9171875 14.67257812 9.359375 14.50390625 C6.59777407 13.91409413 4.07181861 13.90390692 1.25 13.9375 C0.26515625 13.94652344 -0.7196875 13.95554687 -1.734375 13.96484375 C-2.85585938 13.98224609 -2.85585938 13.98224609 -4 14 C-4 14.99 -4 15.98 -4 17 C-3.030625 17.28875 -2.06125 17.5775 -1.0625 17.875 C2 19 2 19 3 21 C5.02463255 21.65213292 5.02463255 21.65213292 7 22 C6.15646064 24.67120799 5.54188875 26.54147875 3.375 28.375 C-0.21903026 29.32079744 -3.42142415 28.91367894 -7 28 C-9.67836558 26.35842109 -9.9364948 25.20412387 -10.875 22.1875 C-11.03285115 18.16229569 -10.27986451 16.30948074 -8 13 C-4.8125 11.125 -4.8125 11.125 -2 10 C-2.66 8.35 -3.32 6.7 -4 5 C-2.68 3.35 -1.36 1.7 0 0 Z " fill="#6144F1" transform="translate(311,244)"/>
<path d="M0 0 C2.34765625 -0.1796875 2.34765625 -0.1796875 5 0 C6.25614586 1.48160794 7.50804612 2.97025973 8.6640625 4.53125 C10.71847195 6.78989899 13.0966252 7.32479656 16 8 C16 8.33 16 8.66 16 9 C14.02 9.33 12.04 9.66 10 10 C10 10.66 10 11.32 10 12 C10.99 12 11.98 12 13 12 C13 11.34 13 10.68 13 10 C16 11 16 11 18 12 C18 11.34 18 10.68 18 10 C20.64 10.33 23.28 10.66 26 11 C26 11.66 26 12.32 26 13 C18.08596305 16.08840466 12.58517676 15.19375864 5 12 C4.34 12.66 3.68 13.32 3 14 C-0.125 14.125 -0.125 14.125 -3 14 C-4.37095624 10.30962722 -3.60010967 8.29116165 -2.0625 4.75 C-1.68222656 3.85796875 -1.30195313 2.9659375 -0.91015625 2.046875 C-0.60980469 1.37140625 -0.30945313 0.6959375 0 0 Z " fill="#7A63E9" transform="translate(339,258)"/>
<path d="M0 0 C3 0.625 3 0.625 5.3125 2.9375 C7 5.625 7 5.625 8 8.625 C9.98246398 9.65932904 11.98413316 10.65738392 14 11.625 C15.68359375 12.89453125 15.68359375 12.89453125 17 14.625 C17.29296875 17.10546875 17.29296875 17.10546875 17.1875 19.8125 C17.14689453 21.16408203 17.14689453 21.16408203 17.10546875 22.54296875 C17.07066406 23.23003906 17.03585938 23.91710937 17 24.625 C10.375 27.5 10.375 27.5 7 28.625 C6.6278958 29.94803717 6.29369827 31.28237935 6 32.625 C5.01 33.12 5.01 33.12 4 33.625 C2.9590934 35.26642963 1.95495674 36.93212215 1 38.625 C-2.37082558 37.18036047 -4.58037292 35.37836875 -7 32.625 C-7.33 31.635 -7.66 30.645 -8 29.625 C-10.91887443 26.05748681 -13.58700462 24.82854419 -18 23.625 C-18.33 20.985 -18.66 18.345 -19 15.625 C-18.05125 15.17125 -17.1025 14.7175 -16.125 14.25 C-12.99686321 12.82261746 -12.99686321 12.82261746 -11 10.625 C-10.01 10.625 -9.02 10.625 -8 10.625 C-7.9175 9.903125 -7.835 9.18125 -7.75 8.4375 C-6.51658742 3.81220282 -4.82636255 1.0054922 0 0 Z M-2 1.625 C-3.70526911 3.7313048 -3.70526911 3.7313048 -5.0625 6.4375 C-9.13953158 13.93188432 -9.13953158 13.93188432 -14.1875 15.8125 C-15.115625 16.080625 -16.04375 16.34875 -17 16.625 C-17.11635105 18.92281554 -17.11635105 18.92281554 -16 21.625 C-14.10269949 23.19869551 -12.09676039 24.54230495 -10.0625 25.93359375 C-7.25316467 28.23746155 -5.81679622 30.87063738 -4.203125 34.0859375 C-3.80609375 34.59382813 -3.4090625 35.10171875 -3 35.625 C-1.68 35.625 -0.36 35.625 1 35.625 C1.33 34.635 1.66 33.645 2 32.625 C3.33333333 31.95833333 4.66666667 31.29166667 6 30.625 C6.33 29.635 6.66 28.645 7 27.625 C9.06640625 26.45703125 9.06640625 26.45703125 11.5625 25.4375 C12.38878906 25.09332031 13.21507813 24.74914062 14.06640625 24.39453125 C14.70449219 24.14058594 15.34257813 23.88664062 16 23.625 C16 21.315 16 19.005 16 16.625 C14.948125 16.315625 13.89625 16.00625 12.8125 15.6875 C7.75929924 13.57006568 6.27127492 9.3206695 4 4.625 C3.34 3.635 2.68 2.645 2 1.625 C0.68 1.625 -0.64 1.625 -2 1.625 Z " fill="#E1DDFE" transform="translate(96,209.375)"/>
<path d="M0 0 C1.17369141 0.14695313 1.17369141 0.14695313 2.37109375 0.296875 C4.11108878 0.55740902 5.84008955 0.89116449 7.5625 1.25 C8.2225 1.37375 8.8825 1.4975 9.5625 1.625 C9.8925 1.295 10.2225 0.965 10.5625 0.625 C12.56208364 0.58419217 14.56295254 0.58245644 16.5625 0.625 C16.44740339 2.04250563 16.31996342 3.45901169 16.1875 4.875 C16.11789062 5.66390625 16.04828125 6.4528125 15.9765625 7.265625 C15.53708992 9.76978952 14.94822115 11.49457156 13.5625 13.625 C12.5725 13.955 11.5825 14.285 10.5625 14.625 C8.40625 13.19140625 8.40625 13.19140625 6.0625 11.1875 C2.79202759 8.18996777 2.79202759 8.18996777 -1.4375 7.625 C-2.0975 8.285 -2.7575 8.945 -3.4375 9.625 C-3.4375 8.305 -3.4375 6.985 -3.4375 5.625 C-1.4575 5.625 0.5225 5.625 2.5625 5.625 C2.5625 4.635 2.5625 3.645 2.5625 2.625 C-3.3775 3.12 -3.3775 3.12 -9.4375 3.625 C-9.4375 4.285 -9.4375 4.945 -9.4375 5.625 C-10.7575 5.295 -12.0775 4.965 -13.4375 4.625 C-8.84110979 0.66699732 -6.02432773 -0.77261742 0 0 Z " fill="#6B50EF" transform="translate(358.4375,235.375)"/>
<path d="M0 0 C1.12148438 -0.02578125 2.24296875 -0.0515625 3.3984375 -0.078125 C6.97104595 0.28519111 8.81720333 1.03764101 11.625 3.25 C12.4375 6.4375 12.4375 6.4375 12.625 9.25 C11.125 10.875 11.125 10.875 8.625 12.25 C5.74990872 12.09658604 3.23939644 11.45354374 0.625 10.25 C-0.875 8.125 -0.875 8.125 -1.375 6.25 C-2.035 6.91 -2.695 7.57 -3.375 8.25 C-3.375 6.6 -3.375 4.95 -3.375 3.25 C-7.83 3.745 -7.83 3.745 -12.375 4.25 C-8.26962219 0.14462219 -5.60588985 0.07696874 0 0 Z " fill="#856CF4" transform="translate(452.375,231.75)"/>
<path d="M0 0 C0.66 0.66 1.32 1.32 2 2 C1.6614786 8.20622568 1.6614786 8.20622568 -0.5625 10.875 C-1.2740625 11.431875 -1.2740625 11.431875 -2 12 C-2 12.33 -2 12.66 -2 13 C-2.62648438 13.06058594 -3.25296875 13.12117187 -3.8984375 13.18359375 C-4.71570313 13.26738281 -5.53296875 13.35117188 -6.375 13.4375 C-7.18710937 13.51871094 -7.99921875 13.59992188 -8.8359375 13.68359375 C-11.04272805 13.89090114 -11.04272805 13.89090114 -13 15 C-13.40729228 17.32156597 -13.74438677 19.6568787 -14 22 C-14.66 22 -15.32 22 -16 22 C-16.33 19.03 -16.66 16.06 -17 13 C-14.03 12.01 -11.06 11.02 -8 10 C-8.33 9.67 -8.66 9.34 -9 9 C-9.3125 5.625 -9.3125 5.625 -9 2 C-6.17266771 -1.35091234 -4.03066587 -1.37891201 0 0 Z " fill="#8773E9" transform="translate(432,232)"/>
<path d="M0 0 C0.6875 1.75 0.6875 1.75 1 4 C-0.3125 6.25 -0.3125 6.25 -2 8 C-2.66 8 -3.32 8 -4 8 C-4.226875 9.0725 -4.45375 10.145 -4.6875 11.25 C-6.17892015 15.51120042 -7.37821636 16.4731742 -11 19 C-11.763125 19.78375 -12.52625 20.5675 -13.3125 21.375 C-22.14285714 30 -22.14285714 30 -27 30 C-27.33 30.99 -27.66 31.98 -28 33 C-28.36298932 27.55516014 -28.36298932 27.55516014 -26.9375 25.375 C-25 24 -25 24 -21.9375 22.375 C-14.84753582 18.45964665 -9.13120573 12.88939308 -5 6 C-4.34 6 -3.68 6 -3 6 C-2.690625 5.195625 -2.38125 4.39125 -2.0625 3.5625 C-1 1 -1 1 0 0 Z " fill="#C7C4FE" transform="translate(50,226)"/>
<path d="M0 0 C4.93437548 0.47028505 7.57827658 1.78496539 11.375 4.9375 C12.68597656 6.00291016 12.68597656 6.00291016 14.0234375 7.08984375 C14.67570312 7.72019531 15.32796875 8.35054688 16 9 C16 9.66 16 10.32 16 11 C16.66 11 17.32 11 18 11 C20.625 13.3125 20.625 13.3125 23 16 C23 16.99 23 17.98 23 19 C23.8971875 19.309375 23.8971875 19.309375 24.8125 19.625 C27.85490688 21.53737004 28.66171946 23.72121267 30 27 C30 27.99 30 28.98 30 30 C33.4306283 29.44967902 33.4306283 29.44967902 37 28 C38.85916824 25.03292954 38.85916824 25.03292954 40 22 C40.66 21.67 41.32 21.34 42 21 C41.46591094 25.53975699 40.08072246 28.60330601 37 32 C34.15305653 32.5280182 31.92600524 32.29260052 29 32 C28.71125 31.360625 28.4225 30.72125 28.125 30.0625 C27.17176549 27.84793921 27.17176549 27.84793921 25 27 C24.33333333 25 23.66666667 23 23 21 C22.34 20.67 21.68 20.34 21 20 C21 19.01 21 18.02 21 17 C20.4225 16.773125 19.845 16.54625 19.25 16.3125 C16.43872084 14.67258716 15.02226655 12.52783319 13 10 C10.88339573 8.68834743 10.88339573 8.68834743 9 8 C9 7.34 9 6.68 9 6 C8.2575 5.71125 7.515 5.4225 6.75 5.125 C4.43260203 4.17697356 2.22082885 3.15154089 0 2 C0 1.34 0 0.68 0 0 Z " fill="#DCD7FE" transform="translate(23,259)"/>
<path d="M0 0 C0.33 0 0.66 0 1 0 C1.4375 2.0625 1.4375 2.0625 1 5 C-0.59375 6.6796875 -0.59375 6.6796875 -2.5625 8.4375 C-5.64901734 11.17097858 -5.64901734 11.17097858 -6.125 15.25 C-5.01051932 17.9742861 -4.16100233 19.09831795 -2 21 C-0.1086401 24.085903 0 25.17320731 0 29 C0.99 29.33 1.98 29.66 3 30 C1.68 30 0.36 30 -1 30 C-2.421875 28.2421875 -2.421875 28.2421875 -3.75 25.875 C-6.41191528 21.52720505 -9.16042595 19.06849842 -13.4609375 16.38671875 C-14.22277344 15.70029297 -14.22277344 15.70029297 -15 15 C-15 13.68 -15 12.36 -15 11 C-13.96875 10.608125 -12.9375 10.21625 -11.875 9.8125 C-9.08677995 8.6361313 -6.97029911 7.29656244 -4.6875 5.3125 C-2 3 -2 3 0 3 C0 2.01 0 1.02 0 0 Z " fill="#7F71F9" transform="translate(94,215)"/>
<path d="M0 0 C1.32 0.33 2.64 0.66 4 1 C1.16569547 4.2542015 -0.68607774 5.5206753 -5 6 C-5.268125 6.969375 -5.53625 7.93875 -5.8125 8.9375 C-6.204375 9.948125 -6.59625 10.95875 -7 12 C-7.99 12.33 -8.98 12.66 -10 13 C-10.68486725 14.32407669 -11.34870203 15.65909241 -12 17 C-13.94334777 19.07290429 -15.99203188 20.99251479 -18.0625 22.9375 C-20.13992836 24.95164241 -20.13992836 24.95164241 -21.375 27.75 C-21.91125 28.4925 -22.4475 29.235 -23 30 C-26.1875 30.3125 -26.1875 30.3125 -29 30 C-29.99 27.69 -30.98 25.38 -32 23 C-31.01 23 -30.02 23 -29 23 C-28.67 24.98 -28.34 26.96 -28 29 C-26.01735205 28.34410262 -26.01735205 28.34410262 -24 27 C-23.27840576 25.35636866 -22.60648579 23.68949614 -22 22 C-21.34 21.67 -20.68 21.34 -20 21 C-19.00975966 19.24312198 -18.02194748 17.48385766 -17.09765625 15.69140625 C-16 14 -16 14 -13 12 C-12.443125 10.824375 -12.443125 10.824375 -11.875 9.625 C-9.4217153 6.19040142 -6.84921884 5.41411563 -2.9609375 3.9921875 C-0.64555189 3.10953274 -0.64555189 3.10953274 0 0 Z " fill="#A699FC" transform="translate(82,259)"/>
<path d="M0 0 C3.59627792 -0.32693436 5.37635888 -0.47194463 8.3125 1.75 C9.95208905 3.93611873 10.61794563 5.32561938 11 8 C11.66 7.236875 12.32 6.47375 13 5.6875 C17.5323809 1.20604473 22.73098903 -0.16778613 29 -0.1875 C30.33395836 -0.14018053 31.66780204 -0.08326237 33 0 C33.495 0.99 33.495 0.99 34 2 C33.30132812 2.04898438 32.60265625 2.09796875 31.8828125 2.1484375 C30.97273438 2.22320312 30.06265625 2.29796875 29.125 2.375 C28.22007812 2.44460937 27.31515625 2.51421875 26.3828125 2.5859375 C23.82058097 2.79568132 23.82058097 2.79568132 22 5 C18.875 5.125 18.875 5.125 16 5 C15.8453125 6.1446875 15.8453125 6.1446875 15.6875 7.3125 C14.95288806 10.18416484 14.3283935 11.23042094 12 13 C11.34 13 10.68 13 10 13 C10 16.96 10 20.92 10 25 C9.34 24.67 8.68 24.34 8 24 C8.03480469 22.80761719 8.06960937 21.61523438 8.10546875 20.38671875 C8.13360753 18.82032658 8.1609076 17.25391919 8.1875 15.6875 C8.21263672 14.90181641 8.23777344 14.11613281 8.26367188 13.30664062 C8.27333984 12.54931641 8.28300781 11.79199219 8.29296875 11.01171875 C8.3086792 10.31522217 8.32438965 9.61872559 8.34057617 8.90112305 C7.90153548 6.4503633 6.78949463 5.65975701 5 4 C5 3.34 5 2.68 5 2 C3.35 1.67 1.7 1.34 0 1 C0 0.67 0 0.34 0 0 Z " fill="#7C65EA" transform="translate(202,243)"/>
<path d="M0 0 C0.66 0 1.32 0 2 0 C1.835 1.093125 1.67 2.18625 1.5 3.3125 C0.93281816 6.87525873 0.93281816 6.87525873 1 10 C1.66 10 2.32 10 3 10 C3.12375 9.05125 3.2475 8.1025 3.375 7.125 C4 4 4 4 6 2 C6.21192221 7.19209404 5.5912689 11.126739 4 16 C3.01 16 2.02 16 1 16 C0.2575 16.495 -0.485 16.99 -1.25 17.5 C-4.82961106 19.45251513 -6.97451071 19.5750699 -11 19 C-14 16.9375 -14 16.9375 -16 14 C-15.8125 10.1875 -15.8125 10.1875 -15 7 C-14.67 7 -14.34 7 -14 7 C-13.67 9.31 -13.34 11.62 -13 14 C-12.01 14.33 -11.02 14.66 -10 15 C-10 15.66 -10 16.32 -10 17 C-6.97580475 16.41196203 -3.98241547 15.77321882 -1 15 C-1.66 14.67 -2.32 14.34 -3 14 C-2.58846263 9.02906176 -2.20399168 4.55491614 0 0 Z " fill="#7C65EA" transform="translate(279,254)"/>
<path d="M0 0 C0.66 0.33 1.32 0.66 2 1 C2.625 3.0625 2.625 3.0625 3 5 C1.9171875 5.309375 1.9171875 5.309375 0.8125 5.625 C-2.9229645 7.45122709 -4.43587487 9.74286807 -7 13 C-7.99 13.495 -7.99 13.495 -9 14 C-9 14.66 -9 15.32 -9 16 C-8.195625 16.45375 -7.39125 16.9075 -6.5625 17.375 C-4 19 -4 19 -3.1875 21.1875 C-3.125625 21.785625 -3.06375 22.38375 -3 23 C-2.34 23 -1.68 23 -1 23 C-0.34 23.66 0.32 24.32 1 25 C2.32 24.34 3.64 23.68 5 23 C4 25 3 27 2 29 C1.01 29 0.02 29 -1 29 C-1 28.01 -1 27.02 -1 26 C-1.99 25.67 -2.98 25.34 -4 25 C-4 24.34 -4 23.68 -4 23 C-4.99 22.67 -5.98 22.34 -7 22 C-7.66 21.01 -8.32 20.02 -9 19 C-9.845625 18.525625 -10.69125 18.05125 -11.5625 17.5625 C-14 16 -14 16 -14.8125 13.8125 C-14.874375 13.214375 -14.93625 12.61625 -15 12 C-14.030625 11.71125 -13.06125 11.4225 -12.0625 11.125 C-8.89335797 10.35785318 -8.89335797 10.35785318 -8 8 C-7.21625 7.566875 -6.4325 7.13375 -5.625 6.6875 C-2.6795497 4.79399624 -1.58095325 3.07869843 0 0 Z " fill="#7C64F9" transform="translate(95,271)"/>
<path d="M0 0 C1.98 0 3.96 0 6 0 C6.20753906 0.556875 6.41507813 1.11375 6.62890625 1.6875 C8.84310727 7.17204814 11.51071497 11.10883175 15.609375 15.37109375 C17 17 17 17 17 19 C15.68 18.67 14.36 18.34 13 18 C13 17.01 13 16.02 13 15 C12.401875 14.9175 11.80375 14.835 11.1875 14.75 C8.30531281 13.76182154 7.52329844 12.61136876 6 10 C5.3125 7.25 5.3125 7.25 5 5 C3.68 4.67 2.36 4.34 1 4 C1 5.98 1 7.96 1 10 C-0.65 10.33 -2.3 10.66 -4 11 C-4.33 11.99 -4.66 12.98 -5 14 C-5.99 14.33 -6.98 14.66 -8 15 C-7.67 13.68 -7.34 12.36 -7 11 C-6.34 11 -5.68 11 -5 11 C-3.13448574 7.41247258 -1.57464072 3.72187807 0 0 Z " fill="#928DF9" transform="translate(53,223)"/>
<path d="M0 0 C0.33 0 0.66 0 1 0 C1 1.65 1 3.3 1 5 C1.66 5 2.32 5 3 5 C3.33 3.68 3.66 2.36 4 1 C4.66 1 5.32 1 6 1 C6 2.98 6 4.96 6 7 C6.99 7 7.98 7 9 7 C9.33 6.01 9.66 5.02 10 4 C12.475 4.495 12.475 4.495 15 5 C14 8 14 8 11.125 9.6875 C4.96212223 12.08911629 -1.61743532 11.96917885 -7.6875 9.5 C-8.450625 9.005 -9.21375 8.51 -10 8 C-6.98968256 7.06576355 -6.13349732 6.95550089 -3 8 C-2.67 7.34 -2.34 6.68 -2 6 C-1.34 6 -0.68 6 0 6 C0 4.02 0 2.04 0 0 Z " fill="#7A61EF" transform="translate(223,262)"/>
<path d="M0 0 C2.8125 0.1875 2.8125 0.1875 5 1 C5.8125 2.625 5.8125 2.625 6 5 C2.89079259 9.71092033 0.64154669 11.6880124 -5 13 C-5 12.34 -5 11.68 -5 11 C-5.66 10.34 -6.32 9.68 -7 9 C-6.67 8.67 -6.34 8.34 -6 8 C-8.97 7.505 -8.97 7.505 -12 7 C-11.67 5.68 -11.34 4.36 -11 3 C-10.67 3.66 -10.34 4.32 -10 5 C-7.71163778 5.41986946 -7.71163778 5.41986946 -5 5 C-4.175 4.154375 -3.35 3.30875 -2.5 2.4375 C-1.675 1.633125 -0.85 0.82875 0 0 Z " fill="#7157F2" transform="translate(132,259)"/>
<path d="M0 0 C0.66 0.33 1.32 0.66 2 1 C2 3.97 2 6.94 2 10 C1.01 10.495 1.01 10.495 0 11 C-1.14761194 14.02552237 -0.91547285 15.94842383 0 19 C0 19.66 0 20.32 0 21 C7.56407533 21.20589721 7.56407533 21.20589721 15 20 C15 19.34 15 18.68 15 18 C13.68 18 12.36 18 11 18 C11 16.35 11 14.7 11 13 C11.33 13.99 11.66 14.98 12 16 C13.98 16 15.96 16 18 16 C17.62118922 18.74637817 17.22167713 19.80049058 15.125 21.6875 C10.60448652 24.47958186 6.15362761 24.483734 1 24 C-1.5625 23 -1.5625 23 -3 21 C-3.74694428 15.02444572 -2.37729847 10.0412051 -0.65625 4.3203125 C0.09071756 2.08113703 0.09071756 2.08113703 0 0 Z " fill="#7F6BE7" transform="translate(457,249)"/>
<path d="M0 0 C2.875 1.5625 2.875 1.5625 5 4 C5.95601527 9.97509543 3.89660804 15.3892012 2 21 C2.66 21 3.32 21 4 21 C4 22.65 4 24.3 4 26 C3.67 25.01 3.34 24.02 3 23 C2.01 23 1.02 23 0 23 C0 20.36 0 17.72 0 15 C0.66 15 1.32 15 2 15 C2.37552165 8.68731397 2.37552165 8.68731397 0 3 C-1.27875 2.938125 -2.5575 2.87625 -3.875 2.8125 C-4.59429687 2.77769531 -5.31359375 2.74289063 -6.0546875 2.70703125 C-6.69664062 2.80371094 -7.33859375 2.90039062 -8 3 C-8.99 4.485 -8.99 4.485 -10 6 C-9.67 6.33 -9.34 6.66 -9 7 C-8.95936168 8.66617115 -8.957279 10.33388095 -9 12 C-10.9375 11.375 -10.9375 11.375 -13 10 C-13.75 6.875 -13.75 6.875 -14 4 C-12.66666667 3.33333333 -11.33333333 2.66666667 -10 2 C-9.071875 1.443125 -9.071875 1.443125 -8.125 0.875 C-5.19194195 -0.33272979 -3.14793377 -0.38546128 0 0 Z " fill="#8974E6" transform="translate(295,243)"/>
<path d="M0 0 C0.99 0.33 1.98 0.66 3 1 C3.05391993 2.79133978 3.09275571 4.58313899 3.125 6.375 C3.14820313 7.37273437 3.17140625 8.37046875 3.1953125 9.3984375 C3 12 3 12 1 14 C-1.625 13.625 -1.625 13.625 -4 13 C-6 7.375 -6 7.375 -6 4 C-3.1875 1.75 -3.1875 1.75 0 0 Z " fill="#4F2FF7" transform="translate(139,237)"/>
<path d="M0 0 C0.91007812 0.00902344 1.82015625 0.01804688 2.7578125 0.02734375 C3.45648438 0.03894531 4.15515625 0.05054688 4.875 0.0625 C4.875 1.0525 4.875 2.0425 4.875 3.0625 C2.895 3.0625 0.915 3.0625 -1.125 3.0625 C-1.455 4.7125 -1.785 6.3625 -2.125 8.0625 C-3.445 7.7325 -4.765 7.4025 -6.125 7.0625 C-6.125 7.7225 -6.125 8.3825 -6.125 9.0625 C-9.875 10.1875 -9.875 10.1875 -12.125 9.0625 C-11.795 7.0825 -11.465 5.1025 -11.125 3.0625 C-9.805 3.0625 -8.485 3.0625 -7.125 3.0625 C-7.125 2.4025 -7.125 1.7425 -7.125 1.0625 C-4.60024538 -0.19987731 -2.81299534 -0.03606404 0 0 Z " fill="#4F2EF9" transform="translate(356.125,237.9375)"/>
<path d="M0 0 C5.23681511 2.19215516 7.59355478 4.64732 11 9 C11.66 9.33 12.32 9.66 13 10 C13 10.99 13 11.98 13 13 C13.99 13 14.98 13 16 13 C16.226875 12.443125 16.45375 11.88625 16.6875 11.3125 C18.35896766 8.36753316 20.55276352 6.31843456 23 4 C23.33 4.66 23.66 5.32 24 6 C23.21625 6.70125 22.4325 7.4025 21.625 8.125 C18.91639182 11.09157086 17.98277285 13.1582516 17 17 C13.85669777 16.6507442 12.20508548 16.16074267 9.6875 14.1875 C8 12 8 12 8 8 C6.68 7.67 5.36 7.34 4 7 C4 5.68 4 4.36 4 3 C2.68 2.67 1.36 2.34 0 2 C0 1.34 0 0.68 0 0 Z " fill="#C4B9FC" transform="translate(81,287)"/>
<path d="M0 0 C2.6875 0.3125 2.6875 0.3125 5.0625 2 C6.6875 4.3125 6.6875 4.3125 6.4375 7.0625 C6.19 7.805 5.9425 8.5475 5.6875 9.3125 C4.0375 9.3125 2.3875 9.3125 0.6875 9.3125 C0.6875 10.3025 0.6875 11.2925 0.6875 12.3125 C-0.9625 12.3125 -2.6125 12.3125 -4.3125 12.3125 C-3.8175 11.3534375 -3.8175 11.3534375 -3.3125 10.375 C-1.93591988 7.53580351 -2.25320083 7.62876225 -2.875 4.3125 C-3.0915625 2.8275 -3.0915625 2.8275 -3.3125 1.3125 C-2.3125 0.3125 -2.3125 0.3125 0 0 Z " fill="#6245F5" transform="translate(341.3125,257.6875)"/>
<path d="M0 0 C3.55780196 0.60990891 6.6828589 1.5783681 10 3 C10 6.3 10 9.6 10 13 C3.375 15.875 3.375 15.875 0 17 C-0.3721042 18.32303717 -0.70630173 19.65737935 -1 21 C-1.66 21.33 -2.32 21.66 -3 22 C-4.0409066 23.64142963 -5.04504326 25.30712215 -6 27 C-7.32 26.34 -8.64 25.68 -10 25 C-8.68 24.67 -7.36 24.34 -6 24 C-5.896875 23.360625 -5.79375 22.72125 -5.6875 22.0625 C-5.460625 21.381875 -5.23375 20.70125 -5 20 C-4.01 19.67 -3.02 19.34 -2 19 C-1.731875 18.38125 -1.46375 17.7625 -1.1875 17.125 C0.54072687 14.0323835 2.78681585 13.31150373 6 12 C6.99 12 7.98 12 9 12 C9 9.69 9 7.38 9 5 C7.88625 4.731875 6.7725 4.46375 5.625 4.1875 C2 3 2 3 0 0 Z " fill="#E2DDFE" transform="translate(103,221)"/>
<path d="M0 0 C1.15628906 -0.01417969 2.31257813 -0.02835938 3.50390625 -0.04296875 C6.4375 0.1875 6.4375 0.1875 8.4375 2.1875 C6.1275 2.1875 3.8175 2.1875 1.4375 2.1875 C1.7675 4.8275 2.0975 7.4675 2.4375 10.1875 C1.7775 10.1875 1.1175 10.1875 0.4375 10.1875 C-0.2225 8.8675 -0.8825 7.5475 -1.5625 6.1875 C-2.2225 6.8475 -2.8825 7.5075 -3.5625 8.1875 C-3.5625 6.5375 -3.5625 4.8875 -3.5625 3.1875 C-8.0175 3.6825 -8.0175 3.6825 -12.5625 4.1875 C-8.39067173 0.01567173 -5.69497456 0.0318155 0 0 Z " fill="#826CEA" transform="translate(452.5625,231.8125)"/>
<path d="M0 0 C1.670625 0.061875 1.670625 0.061875 3.375 0.125 C3.61734375 0.63289062 3.8596875 1.14078125 4.109375 1.6640625 C5.77060188 5.07596694 7.43484911 8.33217891 9.625 11.4375 C11.375 14.125 11.375 14.125 11.375 17.125 C7.14154521 15.61305186 5.51835143 12.96825085 3.375 9.125 C2.625 5.75 2.625 5.75 2.375 3.125 C0.395 3.125 -1.585 3.125 -3.625 3.125 C-3.955 4.115 -4.285 5.105 -4.625 6.125 C-5.25 4.25 -5.25 4.25 -5.625 2.125 C-3.625 0.125 -3.625 0.125 0 0 Z " fill="#E3E1FE" transform="translate(56.625,219.875)"/>
<path d="M0 0 C0.33 0 0.66 0 1 0 C1 2.64 1 5.28 1 8 C0.34 8 -0.32 8 -1 8 C-0.65213292 9.97536745 -0.65213292 9.97536745 0 12 C0.66 12.33 1.32 12.66 2 13 C2 13.66 2 14.32 2 15 C7.55053286 14.25640327 7.55053286 14.25640327 13 13 C12.67 10.69 12.34 8.38 12 6 C12.99 6.66 13.98 7.32 15 8 C15.375 10.4375 15.375 10.4375 15 13 C13.12139167 15.5048111 12.03898126 15.98700625 9 17 C4.68333951 17.47962894 2.64699296 17.40932208 -1.0625 15.0625 C-3.23701623 11.62536145 -3.19207136 11.14090033 -2.375 7.375 C-1.94909178 5.9068693 -1.49314882 4.44693116 -1 3 C-0.67 2.01 -0.34 1.02 0 0 Z " fill="#8E7AE9" transform="translate(394,256)"/>
<path d="M0 0 C0.65136719 1.80224609 0.65136719 1.80224609 1 4 C-0.84517345 6.41062983 -2.6378447 8.47444187 -4.75 10.625 C-5.30171875 11.21023437 -5.8534375 11.79546875 -6.421875 12.3984375 C-12.66120018 18.93773024 -12.66120018 18.93773024 -16.6875 19.125 C-17.450625 19.08375 -18.21375 19.0425 -19 19 C-16.13426373 16.04470947 -13.19937479 13.2922467 -10.0625 10.625 C-6.28784211 7.36604489 -3.15131603 3.86036214 0 0 Z " fill="#8780F9" transform="translate(49,234)"/>
<path d="M0 0 C1.670625 0.061875 1.670625 0.061875 3.375 0.125 C3.045 1.115 2.715 2.105 2.375 3.125 C1.715 3.125 1.055 3.125 0.375 3.125 C0.375 5.105 0.375 7.085 0.375 9.125 C-2.595 9.125 -5.565 9.125 -8.625 9.125 C-8.625 8.135 -8.625 7.145 -8.625 6.125 C-7.965 5.795 -7.305 5.465 -6.625 5.125 C-6.295 4.135 -5.965 3.145 -5.625 2.125 C-3.625 0.125 -3.625 0.125 0 0 Z " fill="#5B3EEF" transform="translate(318.625,243.875)"/>
<path d="M0 0 C0.94875 0.350625 1.8975 0.70125 2.875 1.0625 C2.545 2.3825 2.215 3.7025 1.875 5.0625 C-0.105 5.3925 -2.085 5.7225 -4.125 6.0625 C-5.115 10.0225 -6.105 13.9825 -7.125 18.0625 C-7.455 18.0625 -7.785 18.0625 -8.125 18.0625 C-8.48121515 11.6506273 -7.65560222 6.01754101 -5.125 0.0625 C-3.125 -0.9375 -3.125 -0.9375 0 0 Z " fill="#7961EC" transform="translate(477.125,243.9375)"/>
<path d="M0 0 C2.97 0.99 5.94 1.98 9 3 C9 6.63 9 10.26 9 14 C7.02 14 5.04 14 3 14 C2.34 15.32 1.68 16.64 1 18 C0.34 18 -0.32 18 -1 18 C-1.103125 18.61875 -1.20625 19.2375 -1.3125 19.875 C-2 22 -2 22 -5 24 C-4.40312566 20.65750371 -3.26396123 18.53563658 -1 16 C-0.34 16 0.32 16 1 16 C1.103125 15.360625 1.20625 14.72125 1.3125 14.0625 C1.539375 13.381875 1.76625 12.70125 2 12 C2.99 11.67 3.98 11.34 5 11 C5.33 10.34 5.66 9.68 6 9 C6.66 9 7.32 9 8 9 C8 7.35 8 5.7 8 4 C6.8553125 4.12375 6.8553125 4.12375 5.6875 4.25 C3 4 3 4 1.1875 2 C0.5996875 1.01 0.5996875 1.01 0 0 Z " fill="#D3CBFC" transform="translate(104,277)"/>
<path d="M0 0 C0 3 0 3 -1 5 C-1.66 5 -2.32 5 -3 5 C-3 5.66 -3 6.32 -3 7 C-4.65 7.33 -6.3 7.66 -8 8 C-6.2782496 11.05843658 -6.2782496 11.05843658 -3.75 12.3125 C-0.38341052 14.37836173 2.69329489 16.75792993 5 20 C5 21.32 5 22.64 5 24 C5.99 24.33 6.98 24.66 8 25 C6.68 25 5.36 25 4 25 C2.578125 23.2421875 2.578125 23.2421875 1.25 20.875 C-1.41191528 16.52720505 -4.16042595 14.06849842 -8.4609375 11.38671875 C-9.22277344 10.70029297 -9.22277344 10.70029297 -10 10 C-10 8.68 -10 7.36 -10 6 C-8.906875 5.566875 -7.81375 5.13375 -6.6875 4.6875 C-3.90591207 3.50504359 -1.93638061 2.39199957 0 0 Z " fill="#A9A0FA" transform="translate(89,220)"/>
<path d="M0 0 C1.32 0 2.64 0 4 0 C3.67 1.32 3.34 2.64 3 4 C2.67 3.67 2.34 3.34 2 3 C1.3503125 4.3921875 1.3503125 4.3921875 0.6875 5.8125 C-1.65853659 10.24390244 -1.65853659 10.24390244 -4 12 C-4.99 12 -5.98 12 -7 12 C-7.33 12.99 -7.66 13.98 -8 15 C-9.98 15.33 -11.96 15.66 -14 16 C-13.67 17.32 -13.34 18.64 -13 20 C-13.66 19.67 -14.32 19.34 -15 19 C-15 17.68 -15 16.36 -15 15 C-13.35 14.67 -11.7 14.34 -10 14 C-10 13.34 -10 12.68 -10 12 C-9.21625 11.7525 -8.4325 11.505 -7.625 11.25 C-4.53470952 9.7784331 -4.2090365 9.108951 -3 6 C-2 4 -1 2 0 0 Z " fill="#927FF9" transform="translate(94,267)"/>
<path d="M0 0 C0.33 1.32 0.66 2.64 1 4 C-0.65 4.99 -2.3 5.98 -4 7 C-4 6.01 -4 5.02 -4 4 C-5.98 4 -7.96 4 -10 4 C-10.33 5.32 -10.66 6.64 -11 8 C-13.31 7.67 -15.62 7.34 -18 7 C-17.125 3.125 -17.125 3.125 -16 2 C-14.23252271 1.87437765 -12.45939708 1.82423442 -10.6875 1.8125 C-9.23923828 1.79123047 -9.23923828 1.79123047 -7.76171875 1.76953125 C-4.98480842 2.00126776 -3.36526859 2.57859156 -1 4 C-0.67 2.68 -0.34 1.36 0 0 Z " fill="#512FFA" transform="translate(323,255)"/>
<path d="M0 0 C1.31554985 0.4495045 2.62738358 0.90989716 3.9375 1.375 C5.03384766 1.75785156 5.03384766 1.75785156 6.15234375 2.1484375 C8 3 8 3 9 5 C9.04022391 7.3329866 9.04320247 9.66706666 9 12 C8.360625 12.103125 7.72125 12.20625 7.0625 12.3125 C6.381875 12.539375 5.70125 12.76625 5 13 C4.67 13.99 4.34 14.98 4 16 C2.02 16.33 0.04 16.66 -2 17 C-2.33 17.99 -2.66 18.98 -3 20 C-3.99 19.67 -4.98 19.34 -6 19 C-3.62630732 16.37644494 -1.03386523 14.78920257 2 13 C2.66 12.34 3.32 11.68 4 11 C5.32 11 6.64 11 8 11 C8 9.68 8 8.36 8 7 C6.68 6.34 5.36 5.68 4 5 C4 4.34 4 3.68 4 3 C2.68 2.67 1.36 2.34 0 2 C0 1.34 0 0.68 0 0 Z " fill="#DAD4FE" transform="translate(82,248)"/>
<path d="M0 0 C0.6875 1.75 0.6875 1.75 1 4 C-0.3125 6.25 -0.3125 6.25 -2 8 C-2.66 8 -3.32 8 -4 8 C-4.20625 8.721875 -4.4125 9.44375 -4.625 10.1875 C-6.39641028 13.81083921 -8.86429594 15.51756762 -12 18 C-12.66 18.99 -13.32 19.98 -14 21 C-15.32 20.67 -16.64 20.34 -18 20 C-17.31292969 19.40832031 -16.62585937 18.81664062 -15.91796875 18.20703125 C-15.01691406 17.41683594 -14.11585937 16.62664062 -13.1875 15.8125 C-12.29417969 15.03519531 -11.40085937 14.25789062 -10.48046875 13.45703125 C-8.10593914 11.10493814 -6.68707902 8.8523288 -5 6 C-4.34 6 -3.68 6 -3 6 C-2.690625 5.195625 -2.38125 4.39125 -2.0625 3.5625 C-1 1 -1 1 0 0 Z " fill="#E5E5FE" transform="translate(50,226)"/>
<path d="M0 0 C0.33 0 0.66 0 1 0 C1.12375 1.175625 1.2475 2.35125 1.375 3.5625 C1.86435935 7.54120426 2.8055205 11.17766559 4 15 C4.99 15 5.98 15 7 15 C7.44988281 15.48082031 7.89976563 15.96164062 8.36328125 16.45703125 C10.58099536 18.54771639 12.18662216 18.4926378 15.1875 18.6875 C16.08855469 18.75324219 16.98960938 18.81898438 17.91796875 18.88671875 C18.60503906 18.92410156 19.29210937 18.96148437 20 19 C20 19.66 20 20.32 20 21 C13.12870458 21.36164713 8.1044749 20.61429466 2.625 16 C-0.17235734 12.55709866 -0.11276208 9.58477704 -0.0625 5.3125 C-0.05347656 4.31863281 -0.04445313 3.32476562 -0.03515625 2.30078125 C-0.02355469 1.54152344 -0.01195313 0.78226563 0 0 Z " fill="#8E7CE9" transform="translate(106,252)"/>
<path d="M0 0 C1.65 0.33 3.3 0.66 5 1 C4.01 1.33 3.02 1.66 2 2 C1.40929986 3.94603274 1.40929986 3.94603274 1 6 C0.34 6.66 -0.32 7.32 -1 8 C1.31 8.33 3.62 8.66 6 9 C6 9.99 6 10.98 6 12 C2.7 12 -0.6 12 -4 12 C-3.34 11.34 -2.68 10.68 -2 10 C-2.66 8.35 -3.32 6.7 -4 5 C-2.68 3.35 -1.36 1.7 0 0 Z " fill="#8F7AF0" transform="translate(311,244)"/>
<path d="M0 0 C0.66 0.33 1.32 0.66 2 1 C2.625 3.0625 2.625 3.0625 3 5 C1.9171875 5.309375 1.9171875 5.309375 0.8125 5.625 C-2.9229645 7.45122709 -4.43587487 9.74286807 -7 13 C-7.99 13.495 -7.99 13.495 -9 14 C-9 14.99 -9 15.98 -9 17 C-9.99 16.67 -10.98 16.34 -12 16 C-12.6875 13.9375 -12.6875 13.9375 -13 12 C-12.360625 11.71125 -11.72125 11.4225 -11.0625 11.125 C-8.84793921 10.17176549 -8.84793921 10.17176549 -8 8 C-7.21625 7.566875 -6.4325 7.13375 -5.625 6.6875 C-2.6795497 4.79399624 -1.58095325 3.07869843 0 0 Z " fill="#664BF7" transform="translate(95,271)"/>
<path d="M0 0 C0.66 0.33 1.32 0.66 2 1 C1.70703125 2.953125 1.4140625 4.90625 1.12109375 6.859375 C0.87452051 9.33941547 0.87452051 9.33941547 2 13 C-4.27 13 -10.54 13 -17 13 C-16.67 11.68 -16.34 10.36 -16 9 C-15.34 8.67 -14.68 8.34 -14 8 C-14 8.99 -14 9.98 -14 11 C-10.04 11.33 -6.08 11.66 -2 12 C-1.34 8.04 -0.68 4.08 0 0 Z " fill="#7963E2" transform="translate(155,259)"/>
<path d="M0 0 C1.32 0.33 2.64 0.66 4 1 C4 1.99 4 2.98 4 4 C4.66 4 5.32 4 6 4 C6 4.66 6 5.32 6 6 C5.34 6 4.68 6 4 6 C3.67 6.66 3.34 7.32 3 8 C2.01 8 1.02 8 0 8 C-0.99 8.495 -0.99 8.495 -2 9 C-4.6723621 9.13415472 -7.32250488 9.04318541 -10 9 C-10 8.34 -10 7.68 -10 7 C-7.03 7 -4.06 7 -1 7 C-0.67 4.69 -0.34 2.38 0 0 Z " fill="#927FE9" transform="translate(173,264)"/>
<path d="M0 0 C0.66 0.66 1.32 1.32 2 2 C1.96712417 4.72869407 1.43602229 7.2966618 1 10 C1.99 10.33 2.98 10.66 4 11 C3.67 13.64 3.34 16.28 3 19 C2.34 19 1.68 19 1 19 C0.67 16.69 0.34 14.38 0 12 C-0.99 12 -1.98 12 -3 12 C-3 10.68 -3 9.36 -3 8 C-2.34 8 -1.68 8 -1 8 C-0.67 5.36 -0.34 2.72 0 0 Z " fill="#6E54EF" transform="translate(394,237)"/>
<path d="M0 0 C0 0.66 0 1.32 0 2 C-0.93972656 2.09087891 -0.93972656 2.09087891 -1.8984375 2.18359375 C-2.71570313 2.26738281 -3.53296875 2.35117188 -4.375 2.4375 C-5.18710937 2.51871094 -5.99921875 2.59992188 -6.8359375 2.68359375 C-9.04272805 2.89090114 -9.04272805 2.89090114 -11 4 C-11.40729228 6.32156597 -11.74438677 8.6568787 -12 11 C-12.66 11 -13.32 11 -14 11 C-14.33 8.03 -14.66 5.06 -15 2 C-13.25364835 1.46706165 -11.50272348 0.94909337 -9.75 0.4375 C-8.77546875 0.14746094 -7.8009375 -0.14257812 -6.796875 -0.44140625 C-4.03756068 -0.99249836 -2.6087176 -0.93789609 0 0 Z " fill="#7F6AE5" transform="translate(430,243)"/>
<path d="M0 0 C3 1 3 1 5 2 C5 1.34 5 0.68 5 0 C7.64 0.33 10.28 0.66 13 1 C13 1.66 13 2.32 13 3 C8.49646738 4.75747614 4.82360189 5.19294408 0 5 C0 3.35 0 1.7 0 0 Z " fill="#745AF0" transform="translate(352,268)"/>
<path d="M0 0 C1.875 1.5 1.875 1.5 3 3 C1.34207513 3 -0.31709594 2.98304636 -1.97265625 2.89453125 C-3.98053218 2.81571743 -5.99285224 2.90442154 -8 3 C-8.99 4.485 -8.99 4.485 -10 6 C-9.67 6.33 -9.34 6.66 -9 7 C-8.95936168 8.66617115 -8.957279 10.33388095 -9 12 C-10.9375 11.375 -10.9375 11.375 -13 10 C-13.75 6.875 -13.75 6.875 -14 4 C-12.66666667 3.33333333 -11.33333333 2.66666667 -10 2 C-9.071875 1.443125 -9.071875 1.443125 -8.125 0.875 C-5.25032053 -0.30869155 -3.07850449 -0.32750048 0 0 Z " fill="#8A76E9" transform="translate(295,243)"/>
<path d="M0 0 C1.32 0 2.64 0 4 0 C4.33 2.97 4.66 5.94 5 9 C3.02 9 1.04 9 -1 9 C-1.33 6.69 -1.66 4.38 -2 2 C-1.34 2 -0.68 2 0 2 C0 1.34 0 0.68 0 0 Z " fill="#5535F7" transform="translate(427,233)"/>
<path d="M0 0 C2.64 0.99 5.28 1.98 8 3 C8 3.99 8 4.98 8 6 C7.34 6 6.68 6 6 6 C5.67 6.99 5.34 7.98 5 9 C3.44140625 10.1328125 3.44140625 10.1328125 1.5625 11.125 C0.94503906 11.45757812 0.32757813 11.79015625 -0.30859375 12.1328125 C-1.53564293 12.76192316 -2.76665336 13.38332668 -4 14 C-1 8 -1 8 2 7 C2.73323796 4.98491642 2.73323796 4.98491642 3 3 C2.01 3 1.02 3 0 3 C0 2.01 0 1.02 0 0 Z " fill="#7A61F7" transform="translate(104,280)"/>
<path d="M0 0 C2.875 1.5 2.875 1.5 5 4 C5.8316352 8.26105872 5.44396979 11.33404531 3 15 C3.061875 13.741875 3.12375 12.48375 3.1875 11.1875 C3.2600349 7.86656162 3.2600349 7.86656162 1.5 5.125 C1.005 4.75375 0.51 4.3825 0 4 C0 3.34 0 2.68 0 2 C-3.3 2.33 -6.6 2.66 -10 3 C-8.05581249 -0.88837502 -3.85874018 -0.38587402 0 0 Z " fill="#8C78EC" transform="translate(405,243)"/>
<path d="M0 0 C2.4375 1.5 2.4375 1.5 4 3 C4.70125 2.505 5.4025 2.01 6.125 1.5 C9.37119719 -0.1936681 11.39340156 -0.25162315 15 0 C10.90164329 2.7322378 7.10538623 5.22397726 2.0625 4.6875 C1.381875 4.460625 0.70125 4.23375 0 4 C0 3.34 0 2.68 0 2 C-3.63 2 -7.26 2 -11 2 C-6.72076717 -0.13961641 -4.68828152 -0.41859656 0 0 Z " fill="#9D8BED" transform="translate(262,243)"/>
<path d="M0 0 C1.65 0.33 3.3 0.66 5 1 C5.75 2.75 5.75 2.75 6 5 C4.0625 7.25 4.0625 7.25 2 9 C1.67 7.35 1.34 5.7 1 4 C-0.98 4.66 -2.96 5.32 -5 6 C-3.35 4.02 -1.7 2.04 0 0 Z " fill="#907DEC" transform="translate(132,259)"/>
<path d="M0 0 C0.33 0 0.66 0 1 0 C0.67 3.3 0.34 6.6 0 10 C3.3 9.67 6.6 9.34 10 9 C8.02 9.99 8.02 9.99 6 11 C1.90796624 13.02445868 1.90796624 13.02445868 0 17 C-0.66 17 -1.32 17 -2 17 C-2 13.04 -2 9.08 -2 5 C-1.34 5 -0.68 5 0 5 C0 3.35 0 1.7 0 0 Z " fill="#8E7AED" transform="translate(163,234)"/>
<path d="M0 0 C1.32 0.33 2.64 0.66 4 1 C4 3.31 4 5.62 4 8 C3.06027344 8.36351562 3.06027344 8.36351562 2.1015625 8.734375 C1.28429687 9.06953125 0.46703125 9.4046875 -0.375 9.75 C-1.18710938 10.07484375 -1.99921875 10.3996875 -2.8359375 10.734375 C-5.33315139 12.19483944 -5.98244259 13.33869601 -7 16 C-7.66 15.67 -8.32 15.34 -9 15 C-7.30907061 11.61814123 -6.08035338 10.05303323 -2.875 7.9375 C0.08777948 6.31232435 0.08777948 6.31232435 0.9375 3.875 C1.15224757 1.90719261 1.15224757 1.90719261 0 0 Z " fill="#BAB1FC" transform="translate(108,225)"/>
<path d="M0 0 C1.19882812 0.15275391 1.19882812 0.15275391 2.421875 0.30859375 C3.02515625 0.39238281 3.6284375 0.47617188 4.25 0.5625 C4.25 1.2225 4.25 1.8825 4.25 2.5625 C-0.37 2.8925 -4.99 3.2225 -9.75 3.5625 C-9.75 4.2225 -9.75 4.8825 -9.75 5.5625 C-11.07 5.2325 -12.39 4.9025 -13.75 4.5625 C-8.99885325 0.47123475 -6.20816241 -0.82166855 0 0 Z " fill="#7D67E6" transform="translate(358.75,235.4375)"/>
<path d="M0 0 C1.32 0 2.64 0 4 0 C6.50178124 3.14509642 8.3826474 5.98720812 9 10 C8.34 10 7.68 10 7 10 C3 4.58823529 3 4.58823529 3 2 C2.34 2 1.68 2 1 2 C0.9175 2.78375 0.835 3.5675 0.75 4.375 C0 7 0 7 -2.0625 8.3125 C-3.0215625 8.6528125 -3.0215625 8.6528125 -4 9 C-2.80100302 5.9168649 -1.52299523 2.93720508 0 0 Z " fill="#AEA6F9" transform="translate(94,211)"/>
<path d="M0 0 C1.65 0 3.3 0 5 0 C4.65066406 0.73605469 4.30132812 1.47210938 3.94140625 2.23046875 C3.48636719 3.20628906 3.03132813 4.18210938 2.5625 5.1875 C2.11003906 6.15042969 1.65757813 7.11335937 1.19140625 8.10546875 C0.09618578 10.76631586 -0.54954796 13.16784755 -1 16 C-1.66 16 -2.32 16 -3 16 C-3 13.69 -3 11.38 -3 9 C-2.34 9 -1.68 9 -1 9 C-1 7.35 -1 5.7 -1 4 C-0.34 4 0.32 4 1 4 C0.67 2.68 0.34 1.36 0 0 Z " fill="#806BE9" transform="translate(122,243)"/>
<path d="M0 0 C2.31 0 4.62 0 7 0 C6.690625 0.598125 6.38125 1.19625 6.0625 1.8125 C4.89790296 4.08956772 4.89790296 4.08956772 4 7 C5.32 7.33 6.64 7.66 8 8 C5.69 8 3.38 8 1 8 C0.67 5.36 0.34 2.72 0 0 Z " fill="#4F30F1" transform="translate(454,234)"/>
<path d="M0 0 C2.75 -0.3125 2.75 -0.3125 6 0 C8.600965 2.600965 9.8370444 4.51113321 11 8 C11.99 8.495 12.98 8.99 14 9.5 C14.99 9.995 15.98 10.49 17 11 C17.33 11.99 17.66 12.98 18 14 C17.443125 13.71125 16.88625 13.4225 16.3125 13.125 C14.01118847 11.92572228 14.01118847 11.92572228 11.4375 11.25 C7.29727806 9.12680926 6.4075652 5.22269561 5 1 C3.35 1 1.7 1 0 1 C0 0.67 0 0.34 0 0 Z " fill="#EFEEFE" transform="translate(93,210)"/>
<path d="M0 0 C1.9375 0.5625 1.9375 0.5625 4 2 C5.92668152 8.16538086 4.1126711 13.06781051 2 19 C1.34 18.34 0.68 17.68 0 17 C0 16.01 0 15.02 0 14 C0.66 14 1.32 14 2 14 C1.979375 12.9275 1.95875 11.855 1.9375 10.75 C1.9857984 7.85209576 2.13155885 5.71387859 3 3 C2.01 3 1.02 3 0 3 C0 2.01 0 1.02 0 0 Z " fill="#9785E4" transform="translate(173,244)"/>
<path d="M0 0 C2.9375 0.8125 2.9375 0.8125 6 2 C6.33 2.99 6.66 3.98 7 5 C7.99 5.33 8.98 5.66 10 6 C10 6.66 10 7.32 10 8 C10.66 8 11.32 8 12 8 C12.66 9.98 13.32 11.96 14 14 C13.01 13.67 12.02 13.34 11 13 C11 12.01 11 11.02 11 10 C10.360625 9.731875 9.72125 9.46375 9.0625 9.1875 C7 8 7 8 6 5 C5.34 5 4.68 5 4 5 C4 4.34 4 3.68 4 3 C2.68 2.34 1.36 1.68 0 1 C0 0.67 0 0.34 0 0 Z " fill="#9E94FB" transform="translate(35,265)"/>
<path d="M0 0 C1.32 0.33 2.64 0.66 4 1 C1.16569547 4.2542015 -0.68607774 5.5206753 -5 6 C-5.33 6.99 -5.66 7.98 -6 9 C-9 11 -9 11 -12 11 C-10.99117479 8.3594138 -10.39435492 7.21490534 -7.87109375 5.83984375 C-7.06800781 5.54207031 -6.26492187 5.24429687 -5.4375 4.9375 C-3.03162256 4.09537019 -3.03162256 4.09537019 -1 3 C-0.67 2.01 -0.34 1.02 0 0 Z " fill="#9C8EFC" transform="translate(82,259)"/>
<path d="M0 0 C0.66 0.33 1.32 0.66 2 1 C2 1.66 2 2.32 2 3 C2.66 3.33 3.32 3.66 4 4 C3.34 7.3 2.68 10.6 2 14 C1.01 14.33 0.02 14.66 -1 15 C-1.33 15.99 -1.66 16.98 -2 18 C-1.49078152 14.43547063 -0.98048655 10.87207852 -0.4375 7.3125 C0.08729225 3.89595076 0.08729225 3.89595076 0 0 Z " fill="#8B75ED" transform="translate(249,245)"/>
<path d="M0 0 C0.66 0 1.32 0 2 0 C2 0.66 2 1.32 2 2 C2.66 2 3.32 2 4 2 C4 2.99 4 3.98 4 5 C3.34 5 2.68 5 2 5 C2 6.32 2 7.64 2 9 C-0.16874252 8.49396008 -1.99967627 8.00016187 -4 7 C-4 5 -4 5 -2.5625 3.5 C-2.046875 3.005 -1.53125 2.51 -1 2 C-0.67 1.34 -0.34 0.68 0 0 Z " fill="#5030F3" transform="translate(202,244)"/>
<path d="M0 0 C0 0.66 0 1.32 0 2 C-1.65 2.33 -3.3 2.66 -5 3 C-5.33 4.32 -5.66 5.64 -6 7 C-6.33 6.01 -6.66 5.02 -7 4 C-7.78375 4.20625 -8.5675 4.4125 -9.375 4.625 C-10.24125 4.74875 -11.1075 4.8725 -12 5 C-12.66 4.34 -13.32 3.68 -14 3 C-9.03006806 0.56574762 -5.65394631 -0.34615998 0 0 Z " fill="#7E66EE" transform="translate(129,235)"/>
<path d="M0 0 C4.71322444 2.35661222 7.99934765 5.72071916 11 10 C11 10.66 11 11.32 11 12 C9.68 11.67 8.36 11.34 7 11 C7 10.01 7 9.02 7 8 C6.401875 7.9175 5.80375 7.835 5.1875 7.75 C2.34974589 6.77705573 1.50323933 5.55550687 0 3 C0 2.01 0 1.02 0 0 Z " fill="#8E84FD" transform="translate(59,230)"/>
<path d="M0 0 C0 0.66 0 1.32 0 2 C-3.3 1.34 -6.6 0.68 -10 0 C-10 0.66 -10 1.32 -10 2 C-10.99 2 -11.98 2 -13 2 C-13.33 3.32 -13.66 4.64 -14 6 C-14.66 5.34 -15.32 4.68 -16 4 C-16 3.01 -16 2.02 -16 1 C-11.32009053 -1.41543714 -4.86032337 -2.43016169 0 0 Z " fill="#7661DD" transform="translate(396,233)"/>
<path d="M0 0 C1 3 1 3 0.28515625 5.04296875 C-1.00290774 7.30222476 -2.15458343 9.15887509 -4 11 C-6.95513741 11.72515364 -8.92090212 11.4175048 -12 11 C-12.33 10.34 -12.66 9.68 -13 9 C-11.783125 9 -10.56625 9 -9.3125 9 C-6.3981594 8.67388373 -5.3315326 8.372482 -3.35546875 6.15234375 C-2.12392032 4.13998651 -1.00990684 2.13148608 0 0 Z " fill="#DCD6FD" transform="translate(64,280)"/>
<path d="M0 0 C0 0.99 0 1.98 0 3 C-1.32 3 -2.64 3 -4 3 C-4 3.66 -4 4.32 -4 5 C-7 4 -7 4 -9 3 C-9 3.66 -9 4.32 -9 5 C-9.99 5 -10.98 5 -12 5 C-12.33 4.01 -12.66 3.02 -13 2 C-11.39658445 1.66307215 -9.79223445 1.33058907 -8.1875 1 C-7.29417969 0.814375 -6.40085937 0.62875 -5.48046875 0.4375 C-3 0 -3 0 0 0 Z " fill="#5130F8" transform="translate(361,265)"/>
<path d="M0 0 C0.33 0 0.66 0 1 0 C1.21192221 5.19209404 0.5912689 9.126739 -1 14 C-1.99 13.67 -2.98 13.34 -4 13 C-4 12.01 -4 11.02 -4 10 C-4.66 9.67 -5.32 9.34 -6 9 C-4.68 8.67 -3.36 8.34 -2 8 C-1.7834375 6.576875 -1.7834375 6.576875 -1.5625 5.125 C-1 2 -1 2 0 0 Z " fill="#9985ED" transform="translate(284,256)"/>
<path d="M0 0 C0.66 0.33 1.32 0.66 2 1 C2 3.97 2 6.94 2 10 C1.01 10.495 1.01 10.495 0 11 C-0.68931344 13.34907875 -0.68931344 13.34907875 -1.125 16.0625 C-1.29257812 16.98160156 -1.46015625 17.90070313 -1.6328125 18.84765625 C-1.75398438 19.55792969 -1.87515625 20.26820313 -2 21 C-2.33 21 -2.66 21 -3 21 C-3.34150626 14.96672268 -2.39600477 10.10338621 -0.65625 4.3203125 C0.09071756 2.08113703 0.09071756 2.08113703 0 0 Z " fill="#9481EF" transform="translate(457,249)"/>
<path d="M0 0 C0.66 0 1.32 0 2 0 C0.91103333 5.75762166 -0.29336293 11.39247819 -2 17 C-2.33 17 -2.66 17 -3 17 C-3 13.7 -3 10.4 -3 7 C-2.34 7 -1.68 7 -1 7 C-0.67 4.69 -0.34 2.38 0 0 Z " fill="#836DEA" transform="translate(390,252)"/>
<path d="M0 0 C0.99 0.99 1.98 1.98 3 3 C1.68 6.63 0.36 10.26 -1 14 C-1.66 14 -2.32 14 -3 14 C-3.37137331 6.44874275 -3.37137331 6.44874275 -1.5 4.1875 C-1.005 3.795625 -0.51 3.40375 0 3 C0 2.01 0 1.02 0 0 Z " fill="#7C65EA" transform="translate(226,247)"/>
<path d="M0 0 C5.97031739 0.29123499 8.894534 3.02814384 13 7 C9.26324294 7 7.27825432 5.73948189 4 4 C3.21625 3.608125 2.4325 3.21625 1.625 2.8125 C1.08875 2.544375 0.5525 2.27625 0 2 C0 1.34 0 0.68 0 0 Z " fill="#CAC6FD" transform="translate(23,259)"/>
<path d="M0 0 C4.75986942 1.148934 7.7868152 2.12201835 11 6 C11 7.32 11 8.64 11 10 C9 9 9 9 7.75 7.6875 C5.88468546 5.78089048 5.88468546 5.78089048 2.8125 3.9375 C1.884375 3.298125 0.95625 2.65875 0 2 C0 1.34 0 0.68 0 0 Z " fill="#A69BF9" transform="translate(79,249)"/>
<path d="M0 0 C3.51387796 -0.31944345 5.37550387 -0.43883512 8.3125 1.625 C10.33758712 4.47512262 10.77388755 6.53294243 11 10 C10.67 10.66 10.34 11.32 10 12 C9.34 12 8.68 12 8 12 C8.061875 11.236875 8.12375 10.47375 8.1875 9.6875 C7.96666486 6.52219632 7.30301466 6.01513783 5 4 C5 3.34 5 2.68 5 2 C3.35 1.67 1.7 1.34 0 1 C0 0.67 0 0.34 0 0 Z " fill="#A491F0" transform="translate(202,243)"/>
<path d="M0 0 C-1.98 0.99 -1.98 0.99 -4 2 C-4 2.66 -4 3.32 -4 4 C-5.11375 4.12375 -6.2275 4.2475 -7.375 4.375 C-11.03103677 4.6465813 -11.03103677 4.6465813 -13 7 C-13 5.68 -13 4.36 -13 3 C-11.02 3 -9.04 3 -7 3 C-7 2.01 -7 1.02 -7 0 C-4.3333581 -1.33332095 -2.83319697 -0.67102033 0 0 Z " fill="#765DF1" transform="translate(368,238)"/>
<path d="M0 0 C1.46726798 3.81489674 0.43336419 6.29011622 -1 10 C-1.33 10 -1.66 10 -2 10 C-2 7.36 -2 4.72 -2 2 C-4.64 2.33 -7.28 2.66 -10 3 C-6.68152292 -0.06320961 -4.44849969 -0.3033068 0 0 Z " fill="#907CE9" transform="translate(144,236)"/>
<path d="M0 0 C0.33 0.99 0.66 1.98 1 3 C2.98 3 4.96 3 7 3 C6.60196439 5.88575819 6.20990931 6.82189513 3.9375 8.75 C3.298125 9.1625 2.65875 9.575 2 10 C1.34 9.67 0.68 9.34 0 9 C0.33 8.34 0.66 7.68 1 7 C1.99 7 2.98 7 4 7 C4 6.34 4 5.68 4 5 C2.68 5 1.36 5 0 5 C0 3.35 0 1.7 0 0 Z " fill="#9281E8" transform="translate(468,262)"/>
<path d="M0 0 C1.42226115 2.8445223 1.37761737 5.66412224 1.62109375 8.80859375 C1.8967824 11.28373645 1.8967824 11.28373645 4 14 C3.01 14 2.02 14 1 14 C-1.0015865 11.71247257 -2 10.00648728 -2 6.921875 C-1.3597561 1.3597561 -1.3597561 1.3597561 0 0 Z " fill="#8E7BE5" transform="translate(344,241)"/>
<path d="M0 0 C0.66 0.33 1.32 0.66 2 1 C2 1.66 2 2.32 2 3 C6.62 3 11.24 3 16 3 C16.33 2.34 16.66 1.68 17 1 C17 1.99 17 2.98 17 4 C10.73 4 4.46 4 -2 4 C-2 3.01 -2 2.02 -2 1 C-1.34 0.67 -0.68 0.34 0 0 Z " fill="#725DDE" transform="translate(372,268)"/>
<path d="M0 0 C-0.66 1.32 -1.32 2.64 -2 4 C-2.66 4 -3.32 4 -4 4 C-4.2475 4.5775 -4.495 5.155 -4.75 5.75 C-6.16683317 8.3002997 -7.87627537 10.01785701 -10 12 C-10.33 11.01 -10.66 10.02 -11 9 C-9.33333333 7.33333333 -7.66666667 5.66666667 -6 4 C-5.278125 3.236875 -4.55625 2.47375 -3.8125 1.6875 C-2 0 -2 0 0 0 Z " fill="#D8D2FE" transform="translate(76,268)"/>
<path d="M0 0 C0.99 0.33 1.98 0.66 3 1 C2.67 2.32 2.34 3.64 2 5 C0.35 5.33 -1.3 5.66 -3 6 C-3.66 4.68 -4.32 3.36 -5 2 C-4.360625 1.855625 -3.72125 1.71125 -3.0625 1.5625 C-1.02454854 1.18992819 -1.02454854 1.18992819 0 0 Z " fill="#765EEC" transform="translate(139,245)"/>
<path d="M0 0 C0.66 0 1.32 0 2 0 C1.67 2.64 1.34 5.28 1 8 C0.34 8 -0.32 8 -1 8 C-1.33 8.99 -1.66 9.98 -2 11 C-2.66 11 -3.32 11 -4 11 C-3.21681311 7.08406554 -1.60820142 3.63593365 0 0 Z " fill="#7963E3" transform="translate(413,261)"/>
<path d="M0 0 C3.82964655 1.56022637 6.32190489 3.87555571 9 7 C9 8.32 9 9.64 9 11 C9.99 11.33 10.98 11.66 12 12 C10.68 12 9.36 12 8 12 C6.3671875 10.13671875 6.3671875 10.13671875 4.875 7.6875 C4.37742187 6.88699219 3.87984375 6.08648437 3.3671875 5.26171875 C2.91601562 4.51535156 2.46484375 3.76898438 2 3 C1.34 2.01 0.68 1.02 0 0 Z " fill="#B2A7FB" transform="translate(85,233)"/>
<path d="M0 0 C0.598125 0.185625 1.19625 0.37125 1.8125 0.5625 C4.16408762 1.22093687 4.16408762 1.22093687 7 0 C7 0.99 7 1.98 7 3 C5.02 3 3.04 3 1 3 C0.67 2.01 0.34 1.02 0 0 Z M-4 2 C-1.525 2.495 -1.525 2.495 1 3 C1 3.66 1 4.32 1 5 C-0.65 5 -2.3 5 -4 5 C-4 4.01 -4 3.02 -4 2 Z " fill="#4F2EF6" transform="translate(326,266)"/>
<path d="M0 0 C2.1875 0.3125 2.1875 0.3125 4 1 C3.67 2.65 3.34 4.3 3 6 C2.34 6 1.68 6 1 6 C1 5.34 1 4.68 1 4 C-0.32 3.67 -1.64 3.34 -3 3 C-1.75 1.4375 -1.75 1.4375 0 0 Z " fill="#6247F1" transform="translate(114,239)"/>
<path d="M0 0 C1.04370776 3.21932394 0.92371112 5.35356679 0.125 8.625 C-0.05804688 9.40101563 -0.24109375 10.17703125 -0.4296875 10.9765625 C-1 13 -1 13 -2 15 C-2.66 15 -3.32 15 -4 15 C-3.52229477 13.06213915 -3.04278429 11.12472326 -2.5625 9.1875 C-2.29566406 8.10855469 -2.02882813 7.02960938 -1.75390625 5.91796875 C-1.23922588 3.9259157 -0.65062825 1.95188476 0 0 Z " fill="#8B76EA" transform="translate(377,253)"/>
<path d="M0 0 C0.66 0 1.32 0 2 0 C2.22036864 3.85645121 1.60355101 6.49223216 0 10 C-0.66 10 -1.32 10 -2 10 C-2.33 10.99 -2.66 11.98 -3 13 C-2.45144652 8.428721 -1.58255197 4.32564205 0 0 Z " fill="#8570E8" transform="translate(381,240)"/>
<path d="M0 0 C3.125 -0.1875 3.125 -0.1875 6 0 C6 0.99 6 1.98 6 3 C4.02 3 2.04 3 0 3 C-0.33 4.32 -0.66 5.64 -1 7 C-1.625 5.1875 -1.625 5.1875 -2 3 C-1.34 2.01 -0.68 1.02 0 0 Z " fill="#B9B7FD" transform="translate(53,223)"/>
<path d="M0 0 C0.66 0 1.32 0 2 0 C6 5.41176471 6 5.41176471 6 8 C6.99 8.33 7.98 8.66 9 9 C7.68 9.33 6.36 9.66 5 10 C5 9.01 5 8.02 5 7 C3.68 6.67 2.36 6.34 1 6 C0.67 4.02 0.34 2.04 0 0 Z " fill="#8A7CFA" transform="translate(95,213)"/>
<path d="M0 0 C3.05402088 1.52701044 3.65869481 3.95157912 5 7 C5 7.99 5 8.98 5 10 C3 10 3 10 1.375 8.9375 C-0.68369484 6.03661182 -0.19557733 3.45519943 0 0 Z " fill="#CCC3FE" transform="translate(48,279)"/>
<path d="M0 0 C0.33 0 0.66 0 1 0 C1.63019694 8.19256018 1.63019694 8.19256018 -1 11.5625 C-1.99 12.2740625 -1.99 12.2740625 -3 13 C-3.33 12.01 -3.66 11.02 -4 10 C-3.34 10 -2.68 10 -2 10 C-2 8.68 -2 7.36 -2 6 C-1.34 6 -0.68 6 0 6 C0 4.02 0 2.04 0 0 Z " fill="#7F68EA" transform="translate(369,256)"/>
<path d="M0 0 C0.33 0 0.66 0 1 0 C1 2.64 1 5.28 1 8 C0.01 8.33 -0.98 8.66 -2 9 C-2 10.65 -2 12.3 -2 14 C-2.33 14 -2.66 14 -3 14 C-2.58846263 9.02906176 -2.20399168 4.55491614 0 0 Z " fill="#8C78EE" transform="translate(162,255)"/>
<path d="M0 0 C0.99 0 1.98 0 3 0 C3.33 1.98 3.66 3.96 4 6 C6.46800047 4.84826645 8.04783565 3.95216435 10 2 C9.67 3.65 9.34 5.3 9 7 C7.02 7 5.04 7 3 7 C2.01 4.69 1.02 2.38 0 0 Z " fill="#988AF9" transform="translate(50,282)"/>
<path d="M0 0 C0.66 0.33 1.32 0.66 2 1 C-0.25 3.5 -0.25 3.5 -3 6 C-4.32 6 -5.64 6 -7 6 C-6.67 7.32 -6.34 8.64 -6 10 C-6.66 9.67 -7.32 9.34 -8 9 C-8 7.68 -8 6.36 -8 5 C-6.35 4.67 -4.7 4.34 -3 4 C-3 3.34 -3 2.68 -3 2 C-2.01 1.34 -1.02 0.68 0 0 Z " fill="#AFA0FB" transform="translate(87,277)"/>
<path d="M0 0 C1.65 0 3.3 0 5 0 C5 0.66 5 1.32 5 2 C5.9590625 2.1546875 5.9590625 2.1546875 6.9375 2.3125 C7.618125 2.539375 8.29875 2.76625 9 3 C9.33 3.99 9.66 4.98 10 6 C6.00452264 5.38531118 3.22493358 3.34540624 0 1 C0 0.67 0 0.34 0 0 Z " fill="#8E86FA" transform="translate(27,259)"/>
<path d="M0 0 C0 0.66 0 1.32 0 2 C-4.29 2 -8.58 2 -13 2 C-8.34136785 -0.32931608 -5.0485768 -1.68285893 0 0 Z " fill="#A796F1" transform="translate(430,243)"/>
<path d="M0 0 C0.66 0 1.32 0 2 0 C1.34 1.32 0.68 2.64 0 4 C-0.66 4 -1.32 4 -2 4 C-2.103125 4.61875 -2.20625 5.2375 -2.3125 5.875 C-3 8 -3 8 -6 10 C-5.40312566 6.65750371 -4.26396123 4.53563658 -2 2 C-1.34 2 -0.68 2 0 2 C0 1.34 0 0.68 0 0 Z " fill="#E4DDFE" transform="translate(105,291)"/>
<path d="M0 0 C1.98 0 3.96 0 6 0 C6.33 1.32 6.66 2.64 7 4 C6.34 4 5.68 4 5 4 C4.67 3.34 4.34 2.68 4 2 C3.34 2 2.68 2 2 2 C2.33 3.65 2.66 5.3 3 7 C2.01 6.67 1.02 6.34 0 6 C0 4.02 0 2.04 0 0 Z " fill="#866FF0" transform="translate(313,259)"/>
<path d="M0 0 C0.33 0.66 0.66 1.32 1 2 C1.99 2 2.98 2 4 2 C4.66 3.65 5.32 5.3 6 7 C2.06326356 5.68775452 -0.22719294 4.08089673 -3 1 C-2.01 0.67 -1.02 0.34 0 0 Z " fill="#8B77ED" transform="translate(350,255)"/>
<path d="M0 0 C0 1.65 0 3.3 0 5 C-1.65 5.33 -3.3 5.66 -5 6 C-5.33 5.34 -5.66 4.68 -6 4 C-5.67 3.01 -5.34 2.02 -5 1 C-2 0 -2 0 0 0 Z " fill="#4F2DFA" transform="translate(318,245)"/>
<path d="M0 0 C1.37871915 3.82977542 0.87113444 7.07989501 0 11 C-0.99 11.66 -1.98 12.32 -3 13 C-2.45144652 8.428721 -1.58255197 4.32564205 0 0 Z " fill="#8C79EA" transform="translate(147,245)"/>
<path d="M0 0 C-3.625 3 -3.625 3 -7 3 C-7.33 3.99 -7.66 4.98 -8 6 C-8 4.02 -8 2.04 -8 0 C-4.94736336 -0.98120464 -3.05263664 -0.98120464 0 0 Z " fill="#BEBBF9" transform="translate(30,253)"/>
<path d="M0 0 C1.31872662 0.39651917 2.62997101 0.81798691 3.9375 1.25 C4.66839844 1.48203125 5.39929688 1.7140625 6.15234375 1.953125 C8 3 8 3 8.75390625 5.109375 C8.83511719 5.73328125 8.91632813 6.3571875 9 7 C7.0625 6.6875 7.0625 6.6875 5 6 C4.67 5.01 4.34 4.02 4 3 C1.98491642 2.26676204 1.98491642 2.26676204 0 2 C0 1.34 0 0.68 0 0 Z " fill="#E2DDFE" transform="translate(82,248)"/>
<path d="M0 0 C1.5625 1.6875 1.5625 1.6875 3 4 C2.6875 6.75 2.6875 6.75 2 9 C1.01 8.67 0.02 8.34 -1 8 C-1.125 2.25 -1.125 2.25 0 0 Z " fill="#6143F1" transform="translate(356,257)"/>
<path d="M0 0 C-2.50248865 1.66832577 -4.41149187 2.62381674 -7.1875 3.625 C-8.26064453 4.01558594 -8.26064453 4.01558594 -9.35546875 4.4140625 C-9.89816406 4.60742188 -10.44085938 4.80078125 -11 5 C-10.1875 3.0625 -10.1875 3.0625 -9 1 C-5.8035914 -0.06546953 -3.34252724 -0.07427838 0 0 Z " fill="#9381E9" transform="translate(277,243)"/>
<path d="M0 0 C0.33 0.66 0.66 1.32 1 2 C0.34 2 -0.32 2 -1 2 C-0.67 4.31 -0.34 6.62 0 9 C-0.99 8.67 -1.98 8.34 -3 8 C-3 5.69 -3 3.38 -3 1 C-2.01 0.67 -1.02 0.34 0 0 Z " fill="#7763E2" transform="translate(426,233)"/>
<path d="M0 0 C2.66666667 1.33333333 5.33333333 2.66666667 8 4 C8 4.66 8 5.32 8 6 C5.125 5.8125 5.125 5.8125 2 5 C0.625 2.4375 0.625 2.4375 0 0 Z " fill="#D6D1FE" transform="translate(74,243)"/>
<path d="M0 0 C0.99 0.33 1.98 0.66 3 1 C3.33 3.31 3.66 5.62 4 8 C3.01 8.66 2.02 9.32 1 10 C1.020625 8.906875 1.04125 7.81375 1.0625 6.6875 C1.18544452 3.05615809 1.18544452 3.05615809 0 0 Z " fill="#8E7BEA" transform="translate(147,235)"/>
<path d="M0 0 C3.34373475 0.55728913 6.03312999 1.35173889 9 3 C9 3.66 9 4.32 9 5 C2.25 3.375 2.25 3.375 0 0 Z " fill="#C8C1FD" transform="translate(103,221)"/>
<path d="M0 0 C0.99 0.33 1.98 0.66 3 1 C3.33 1.99 3.66 2.98 4 4 C3.01 4.99 2.02 5.98 1 7 C0.34 6.34 -0.32 5.68 -1 5 C-0.625 2.375 -0.625 2.375 0 0 Z " fill="#4F2DFA" transform="translate(229,263)"/>
<path d="M0 0 C0.66 0.33 1.32 0.66 2 1 C1.67 2.98 1.34 4.96 1 7 C1.66 7.33 2.32 7.66 3 8 C1.35 7.67 -0.3 7.34 -2 7 C-1.34 4.69 -0.68 2.38 0 0 Z " fill="#5235E6" transform="translate(222,261)"/>
<path d="M0 0 C1.64826111 2.96687001 2.44271087 5.65626525 3 9 C2.01 9 1.02 9 0 9 C-1.125 3.375 -1.125 3.375 0 0 Z " fill="#8C78E2" transform="translate(301,260)"/>
<path d="M0 0 C0.66 0 1.32 0 2 0 C3.625 2 3.625 2 5 4 C3.02 4.99 1.04 5.98 -1 7 C-0.67 4.69 -0.34 2.38 0 0 Z " fill="#7057E9" transform="translate(337,262)"/>
<path d="M0 0 C2 3 2 3 1.7578125 5.26171875 C1.54898438 6.06222656 1.34015625 6.86273438 1.125 7.6875 C0.92132813 8.49574219 0.71765625 9.30398438 0.5078125 10.13671875 C0.25644531 11.05904297 0.25644531 11.05904297 0 12 C-0.66 11.34 -1.32 10.68 -2 10 C-2 9.01 -2 8.02 -2 7 C-1.34 7 -0.68 7 0 7 C0 4.69 0 2.38 0 0 Z " fill="#836EEB" transform="translate(175,251)"/>
<path d="M0 0 C0.99 0.495 0.99 0.495 2 1 C2 1.66 2 2.32 2 3 C2.66 3.33 3.32 3.66 4 4 C3.42655063 6.86724686 3.1385485 7.8614515 1 10 C0.67 6.7 0.34 3.4 0 0 Z " fill="#7D66E6" transform="translate(249,245)"/>
<path d="M0 0 C2.375 -0.125 2.375 -0.125 5 0 C7 2 7 2 7.125 4.625 C7.08375 5.40875 7.0425 6.1925 7 7 C6.01 6.67 5.02 6.34 4 6 C4 4.35 4 2.7 4 1 C2.68 0.67 1.36 0.34 0 0 Z " fill="#654CE3" transform="translate(274,244)"/>
<path d="M0 0 C0.66 0.33 1.32 0.66 2 1 C1.67 1.99 1.34 2.98 1 4 C1.66 4.33 2.32 4.66 3 5 C1.02 5.99 1.02 5.99 -1 7 C-1.33 5.02 -1.66 3.04 -2 1 C-1.34 0.67 -0.68 0.34 0 0 Z " fill="#694BF9" transform="translate(160,247)"/>
<path d="M0 0 C0.86625 0.5259375 0.86625 0.5259375 1.75 1.0625 C4.35801776 2.14917407 5.39417629 1.93065133 8 1 C6.6875 3.5 6.6875 3.5 5 6 C4.01 6 3.02 6 2 6 C1.34 4.02 0.68 2.04 0 0 Z " fill="#8573F7" transform="translate(92,238)"/>
<path d="M0 0 C1.45823212 -0.0270043 2.91660675 -0.04639787 4.375 -0.0625 C5.18710937 -0.07410156 5.99921875 -0.08570313 6.8359375 -0.09765625 C9 0 9 0 11 1 C11 1.66 11 2.32 11 3 C7.37 2.34 3.74 1.68 0 1 C0 0.67 0 0.34 0 0 Z " fill="#927FED" transform="translate(385,232)"/>
<path d="M0 0 C3 3.625 3 3.625 3 7 C0.36 7 -2.28 7 -5 7 C-5 6.67 -5 6.34 -5 6 C-3.35 5.67 -1.7 5.34 0 5 C0 3.35 0 1.7 0 0 Z " fill="#8D7AE4" transform="translate(193,265)"/>
<path d="M0 0 C0.66 0.33 1.32 0.66 2 1 C2 1.66 2 2.32 2 3 C-0.8125 3.6875 -0.8125 3.6875 -4 4 C-5.875 2.5625 -5.875 2.5625 -7 1 C-4.69 1.33 -2.38 1.66 0 2 C0 1.34 0 0.68 0 0 Z " fill="#6F56ED" transform="translate(220,268)"/>
<path d="M0 0 C0.99 0.495 0.99 0.495 2 1 C2 1.66 2 2.32 2 3 C2.99 3 3.98 3 5 3 C5 4.65 5 6.3 5 8 C3.0625 7.375 3.0625 7.375 1 6 C0.25 2.875 0.25 2.875 0 0 Z " fill="#947EF6" transform="translate(281,247)"/>
<path d="M0 0 C2.64 1.98 5.28 3.96 8 6 C5 7 5 7 2.3125 5.8125 C1.549375 5.214375 0.78625 4.61625 0 4 C0 2.68 0 1.36 0 0 Z " fill="#8E82FB" transform="translate(70,242)"/>
<path d="M0 0 C0.33 1.32 0.66 2.64 1 4 C-0.65 5.32 -2.3 6.64 -4 8 C-3.50168276 4.31245243 -2.89932357 2.39509338 0 0 Z " fill="#857FF9" transform="translate(49,234)"/>
<path d="M0 0 C1.32 0.33 2.64 0.66 4 1 C4 2.65 4 4.3 4 6 C2.68 6.33 1.36 6.66 0 7 C0.185625 6.21625 0.37125 5.4325 0.5625 4.625 C1.25962266 2.02910225 1.25962266 2.02910225 0 0 Z " fill="#A094F4" transform="translate(108,225)"/>
<path d="M0 0 C1.32 0 2.64 0 4 0 C3.67 1.32 3.34 2.64 3 4 C2.34 4 1.68 4 1 4 C0.01 4.495 0.01 4.495 -1 5 C-0.67 3.35 -0.34 1.7 0 0 Z " fill="#B2A4FB" transform="translate(94,267)"/>
<path d="M0 0 C0.66 0 1.32 0 2 0 C1.34 3.3 0.68 6.6 0 10 C-0.33 10 -0.66 10 -1 10 C-1.125 2.25 -1.125 2.25 0 0 Z " fill="#8E7AED" transform="translate(470,252)"/>
<path d="M0 0 C0.66 0.99 1.32 1.98 2 3 C-0.64 3.66 -3.28 4.32 -6 5 C-6 4.01 -6 3.02 -6 2 C-4.02 1.34 -2.04 0.68 0 0 Z " fill="#8B75E9" transform="translate(455,246)"/>
<path d="M0 0 C2.31 0 4.62 0 7 0 C6.67 0.99 6.34 1.98 6 3 C5.34 3 4.68 3 4 3 C3.67 4.32 3.34 5.64 3 7 C3 5.02 3 3.04 3 1 C2.01 0.67 1.02 0.34 0 0 Z " fill="#5136DB" transform="translate(315,244)"/>
<path d="M0 0 C2.04119788 1.61594832 4.04072937 3.2856382 6 5 C6 5.66 6 6.32 6 7 C4.125 6.875 4.125 6.875 2 6 C0.75 2.9375 0.75 2.9375 0 0 Z " fill="#A097FD" transform="translate(64,235)"/>
<path d="M0 0 C0.33 0.66 0.66 1.32 1 2 C-0.25 4.5625 -0.25 4.5625 -2 7 C-2.99 7.33 -3.98 7.66 -5 8 C-4.67 6.68 -4.34 5.36 -4 4 C-3.34 4 -2.68 4 -2 4 C-1.34 2.68 -0.68 1.36 0 0 Z " fill="#B2AFFD" transform="translate(50,230)"/>
<path d="M0 0 C2.79872437 2.52788007 4.45773019 4.20411134 5 8 C4.34 8 3.68 8 3 8 C0.25624329 5.04518508 0 4.22528092 0 0 Z " fill="#BEB6FC" transform="translate(98,213)"/>
</svg>
